<svg xmlns="http://www.w3.org/2000/svg" viewBox="0 0 20 31.03"><defs><style>.cls-1{fill:#ac3b61;}.cls-2{fill:#eee2dc;}</style></defs><title>back_to_top_1</title><g id="Layer_2" data-name="Layer 2"><g id="Layer_1-2" data-name="Layer 1"><rect class="cls-1" width="20" height="31.03" rx="3.76"/><path class="cls-2" d="M12.66,4.33l1.15,1.15L15,4.25V9h1.63V4.25l1.24,1.23,1.15-1.15-3.2-3.2Z"/><path class="cls-2" d="M14.12,13.74a2,2,0,0,0-.77.15,2.18,2.18,0,0,0-2-1.23,2.12,2.12,0,0,0-.87.18,2.19,2.19,0,0,0-1.87-1.06,2.12,2.12,0,0,0-.57.08V9.7A4.55,4.55,0,0,0,9.67,8.27a4.49,4.49,0,0,0,.82-2.61A4.58,4.58,0,1,0,2.15,8.29,4.52,4.52,0,0,0,3.71,9.68v5.5a2.74,2.74,0,0,0-2.6,2.73v3.44l3.58,4.47v3.11h9.67V25.39l1.94-3.46v-6a2.19,2.19,0,0,0-2.18-2.18ZM3,5.66a3,3,0,0,1,5.91,0,2.92,2.92,0,0,1-.78,2V7a2.13,2.13,0,0,0-.64-1.55A2.17,2.17,0,0,0,5.9,4.79h0A2.18,2.18,0,0,0,3.71,7v.67a3,3,0,0,1-.76-2ZM12.75,25v2.35H6.31V25.25L2.73,20.78V17.91A1.12,1.12,0,0,1,3.85,16.8l1.48-.05V7a.57.57,0,0,1,.56-.56A.58.58,0,0,1,6.46,7v8.94H8.08V14a.57.57,0,0,1,.57-.55.56.56,0,0,1,.56.55v2h1.62V14.84a.56.56,0,0,1,1.11,0v1.08h1.63a.56.56,0,0,1,1.11,0v5.58Z"/></g></g></svg>