<?xml version="1.0" encoding="utf-8"?>
<!-- Generator: Adobe Illustrator 22.1.0, SVG Export Plug-In . SVG Version: 6.00 Build 0)  -->
<svg version="1.1" id="Camada_1" xmlns="http://www.w3.org/2000/svg" xmlns:xlink="http://www.w3.org/1999/xlink" x="0px" y="0px"
	 viewBox="0 0 842 595" style="enable-background:new 0 0 842 595;" xml:space="preserve">
<style type="text/css">
	.st0{fill-rule:evenodd;clip-rule:evenodd;fill:#242F7F;}
	.st1{fill:#ED1C24;}
	.st2{font-family:'Arial-Black';}
	.st3{font-size:61.34px;}
	.st4{font-family:'ArialMT';}
	.st5{font-size:99.8155px;}
</style>
<text transform="matrix(1 0 0 1 -806.1201 417.8926)" class="st1 st2" style="font-size:16.9186px;">E</text>
<text transform="matrix(1.3105 0 0 1 -747.0586 478.5664)" class="st1 st4" style="font-size:27.5306px;">N</text>
<text transform="matrix(1 0 0 1 -806.5747 451.7383)" class="st1 st2" style="font-size:16.9186px;">G</text>
<text transform="matrix(1.3105 0 0 1 -812.5005 478.791)" class="st1 st2" style="font-size:27.5306px;">L</text>
<text transform="matrix(1.3105 0 0 1 -849.0796 478.5664)" class="st1 st4" style="font-size:27.5306px;">I</text>
<text transform="matrix(1 0 0 1 -804.9868 510.8232)" class="st1 st2" style="font-size:16.9186px;">S</text>
<text transform="matrix(1 0 0 1 -805.6919 527.5303)" class="st1 st2" style="font-size:16.9186px;">H</text>
<text transform="matrix(1.3105 0 0 1 -903.771 478.5664)" class="st1 st4" style="font-size:27.5306px;">B</text>
<text transform="matrix(1.3105 0 0 1 -718.3052 478.5664)" class="st1 st4" style="font-size:27.5306px;">T</text>
<text transform="matrix(1 0 0 1 -806.2017 435.0742)" class="st1 st2" style="font-size:16.9186px;">N</text>
<text transform="matrix(1 0 0 1 -801.6514 494.3389)" class="st1 st2" style="font-size:16.9186px;">I</text>
<text transform="matrix(1.3105 0 0 1 -835.7231 478.5664)" class="st1 st4" style="font-size:27.5306px;">L</text>
<text transform="matrix(1.3105 0 0 1 -786.6558 478.5664)" class="st1 st4" style="font-size:27.5306px;">I</text>
<text transform="matrix(1.3105 0 0 1 -877.272 478.5664)" class="st1 st4" style="font-size:27.5306px;">R</text>
<text transform="matrix(1.3105 0 0 1 -773.8364 478.5664)" class="st1 st4" style="font-size:27.5306px;">A</text>
<g id="Group7">
	<polygon id="blue_x5F_piece2_5_" class="st0" points="-818.8,404.1 -875.5,403.7 -818.8,437.9 	"/>
	<polygon id="blue_x5F_piece1_5_" class="st0" points="-859,445.7 -902.1,420.2 -902.1,445.7 	"/>
</g>
<g id="Group6">
	<polygon id="blue_x5F_piece2_4_" class="st0" points="-780.6,404.1 -724,403.7 -780.6,437.9 	"/>
	<polygon id="blue_x5F_piece1_4_" class="st0" points="-740.5,445.7 -697.3,420.2 -697.3,445.7 	"/>
</g>
<polygon id="blue_x5F_piece4_1_" class="st0" points="-819.8,526.6 -876.4,526.9 -819.8,492.8 "/>
<polygon id="blue_x5F_piece3_1_" class="st0" points="-858.4,486.6 -901.5,512.1 -901.5,486.6 "/>
<polygon id="blue_x5F_piece2_2_" class="st0" points="-778.7,526.2 -722.1,526.6 -778.7,492.4 "/>
<polygon id="blue_x5F_piece1_2_" class="st0" points="-740.1,486.2 -697,511.7 -697,486.2 "/>
<text transform="matrix(1 0 0 1 -806.1201 417.8926)" class="st1 st2" style="font-size:16.9186px;">E</text>
<text transform="matrix(1.3105 0 0 1 -747.0586 478.5664)" class="st1 st4" style="font-size:27.5306px;">N</text>
<text transform="matrix(1 0 0 1 -806.5747 451.7383)" class="st1 st2" style="font-size:16.9186px;">G</text>
<text transform="matrix(1.3105 0 0 1 -812.5005 478.791)" class="st1 st2" style="font-size:27.5306px;">L</text>
<text transform="matrix(1.3105 0 0 1 -849.0796 478.5664)" class="st1 st4" style="font-size:27.5306px;">I</text>
<text transform="matrix(1 0 0 1 -804.9868 510.8232)" class="st1 st2" style="font-size:16.9186px;">S</text>
<text transform="matrix(1 0 0 1 -805.6919 527.5303)" class="st1 st2" style="font-size:16.9186px;">H</text>
<text transform="matrix(1.3105 0 0 1 -903.771 478.5664)" class="st1 st4" style="font-size:27.5306px;">B</text>
<text transform="matrix(1.3105 0 0 1 -718.3052 478.5664)" class="st1 st4" style="font-size:27.5306px;">T</text>
<text transform="matrix(1 0 0 1 -806.2017 435.0742)" class="st1 st2" style="font-size:16.9186px;">N</text>
<text transform="matrix(1 0 0 1 -801.6514 494.3389)" class="st1 st2" style="font-size:16.9186px;">I</text>
<text transform="matrix(1.3105 0 0 1 -835.7231 478.5664)" class="st1 st4" style="font-size:27.5306px;">L</text>
<text transform="matrix(1.3105 0 0 1 -786.6558 478.5664)" class="st1 st4" style="font-size:27.5306px;">I</text>
<text transform="matrix(1.3105 0 0 1 -877.272 478.5664)" class="st1 st4" style="font-size:27.5306px;">R</text>
<text transform="matrix(1.3105 0 0 1 -773.8364 478.5664)" class="st1 st4" style="font-size:27.5306px;">A</text>
<g id="Group5">
	<polygon id="blue_x5F_piece2A" class="st0" points="-818.8,404.1 -875.5,403.7 -818.8,437.9 	"/>
	<polygon id="blue_x5F_piece1A" class="st0" points="-859,445.7 -902.1,420.2 -902.1,445.7 	"/>
</g>
<g id="Group4">
	<polygon id="blue_x5F_piece2_3_" class="st0" points="-780.6,404.1 -724,403.7 -780.6,437.9 	"/>
	<polygon id="blue_x5F_piece1_3_" class="st0" points="-740.5,445.7 -697.3,420.2 -697.3,445.7 	"/>
</g>
<polygon id="blue_x5F_pieceDD" class="st0" points="-819.8,526.6 -876.4,526.9 -819.8,492.8 "/>
<polygon id="blue_x5F_pieceCC" class="st0" points="-858.4,486.6 -901.5,512.1 -901.5,486.6 "/>
<polygon id="blue_x5F_pieceBB" class="st0" points="-778.7,526.2 -722.1,526.6 -778.7,492.4 "/>
<polygon id="blue_x5F_pieceAA" class="st0" points="-740.1,486.2 -697,511.7 -697,486.2 "/>
<text transform="matrix(1 0 0 1 -806.1201 417.8926)" class="st1 st2" style="font-size:16.9186px;">E</text>
<text transform="matrix(1.3105 0 0 1 -747.0586 478.5664)" class="st1 st4" style="font-size:27.5306px;">N</text>
<text transform="matrix(1 0 0 1 -806.5747 451.7383)" class="st1 st2" style="font-size:16.9186px;">G</text>
<text transform="matrix(1.3105 0 0 1 -812.5005 478.791)" class="st1 st2" style="font-size:27.5306px;">L</text>
<text transform="matrix(1.3105 0 0 1 -849.0796 478.5664)" class="st1 st4" style="font-size:27.5306px;">I</text>
<text transform="matrix(1 0 0 1 -804.9868 510.8232)" class="st1 st2" style="font-size:16.9186px;">S</text>
<text transform="matrix(1 0 0 1 -805.6919 527.5303)" class="st1 st2" style="font-size:16.9186px;">H</text>
<text transform="matrix(1.3105 0 0 1 -903.771 478.5664)" class="st1 st4" style="font-size:27.5306px;">B</text>
<text transform="matrix(1.3105 0 0 1 -718.3052 478.5664)" class="st1 st4" style="font-size:27.5306px;">T</text>
<text transform="matrix(1 0 0 1 -806.2017 435.0742)" class="st1 st2" style="font-size:16.9186px;">N</text>
<text transform="matrix(1 0 0 1 -801.6514 494.3389)" class="st1 st2" style="font-size:16.9186px;">I</text>
<text transform="matrix(1.3105 0 0 1 -835.7231 478.5664)" class="st1 st4" style="font-size:27.5306px;">L</text>
<text transform="matrix(1.3105 0 0 1 -786.6558 478.5664)" class="st1 st4" style="font-size:27.5306px;">I</text>
<text transform="matrix(1.3105 0 0 1 -877.272 478.5664)" class="st1 st4" style="font-size:27.5306px;">R</text>
<text transform="matrix(1.3105 0 0 1 -773.8364 478.5664)" class="st1 st4" style="font-size:27.5306px;">A</text>
<g id="Group3">
	<polygon id="blue_x5F_pieceB" class="st0" points="-818.8,404.1 -875.5,403.7 -818.8,437.9 	"/>
	<polygon id="blue_x5F_pieceA" class="st0" points="-859,445.7 -902.1,420.2 -902.1,445.7 	"/>
</g>
<g id="Group2">
	<polygon id="blue_x5F_piece2_1_" class="st0" points="-780.6,404.1 -724,403.7 -780.6,437.9 	"/>
	<polygon id="blue_x5F_piece1_1_" class="st0" points="-740.5,445.7 -697.3,420.2 -697.3,445.7 	"/>
</g>
<polygon id="blue_x5F_piece4" class="st0" points="-819.8,526.6 -876.4,526.9 -819.8,492.8 "/>
<polygon id="blue_x5F_piece3" class="st0" points="-858.4,486.6 -901.5,512.1 -901.5,486.6 "/>
<polygon id="blue_x5F_piece2" class="st0" points="-778.7,526.2 -722.1,526.6 -778.7,492.4 "/>
<polygon id="blue_x5F_piece1" class="st0" points="-740.1,486.2 -697,511.7 -697,486.2 "/>
<g id="Group1">
	<text transform="matrix(1 0 0 1 389.2437 127.6313)" class="st1 st2 st3">E</text>
	<text transform="matrix(1.3105 0 0 1 603.3789 347.6113)" class="st1 st4 st5">N</text>
	<text transform="matrix(1 0 0 1 387.5962 250.3423)" class="st1 st2 st3">G</text>
	<text transform="matrix(1.3105 0 0 1 366.1118 348.4258)" class="st1 st2 st5">L</text>
	<text transform="matrix(1.3105 0 0 1 233.4902 347.6113)" class="st1 st4 st5">I</text>
	<text transform="matrix(1 0 0 1 393.3535 464.5615)" class="st1 st2 st3">S</text>
	<text transform="matrix(1 0 0 1 390.7959 525.1338)" class="st1 st2 st3">H</text>
	<text transform="matrix(1.3105 0 0 1 35.2002 347.6113)" class="st1 st4 st5">B</text>
	<text transform="matrix(1.3105 0 0 1 707.627 347.6113)" class="st1 st4 st5">T</text>
	<text transform="matrix(1 0 0 1 388.9478 189.9224)" class="st1 st2 st3">N</text>
	<text transform="matrix(1 0 0 1 405.4453 404.7959)" class="st1 st2 st3">I</text>
	<text transform="matrix(1.3105 0 0 1 281.915 347.6113)" class="st1 st4 st5">L</text>
	<text transform="matrix(1.3105 0 0 1 459.8145 347.6113)" class="st1 st4 st5">I</text>
	<text transform="matrix(1.3105 0 0 1 131.2759 347.6113)" class="st1 st4 st5">R</text>
	<text transform="matrix(1.3105 0 0 1 506.293 347.6113)" class="st1 st4 st5">A</text>
	<g>
		<polygon class="st0" points="344.5,81 139.2,79.7 344.5,203.4 		"/>
		<polygon class="st0" points="199,231.9 42.6,139.5 42.6,231.9 		"/>
	</g>
	<g>
		<polygon class="st0" points="483.1,81 688.4,79.7 483.1,203.4 		"/>
		<polygon class="st0" points="628.6,231.9 785,139.5 785,231.9 		"/>
	</g>
	<polygon class="st0" points="341.1,524.9 135.8,526.3 341.1,402.6 	"/>
	<polygon class="st0" points="201,380.1 44.7,472.6 44.7,380.1 	"/>
	<polygon class="st0" points="489.9,523.6 695.2,524.9 489.9,401.2 	"/>
	<polygon class="st0" points="630,378.8 786.3,471.2 786.3,378.8 	"/>
</g>
</svg>
