<?xml version="1.0" encoding="utf-8"?>
<!-- Generator: Adobe Illustrator 23.0.4, SVG Export Plug-In . SVG Version: 6.00 Build 0)  -->
<svg version="1.1" id="Layer_1" xmlns="http://www.w3.org/2000/svg" xmlns:xlink="http://www.w3.org/1999/xlink" x="0px" y="0px"
	 viewBox="0 0 149.4 55.1" style="enable-background:new 0 0 149.4 55.1;" xml:space="preserve">
<style type="text/css">
	.st0{fill:#419DD5;}
	.st1{fill:#6D6E71;}
	.st2{fill:#FFFFFF;}
</style>
<title>logo</title>
<g>
	<path class="st0" d="M2,20.1c-0.4,3.4-4.7,19.6,0.5,21.2c-2.1-4.3-1-12.2,2.6-15c2.7-2.1,6.4-3.4,7.1-7.2c0.6-3.2-1.5-5.8-4.5-6.5
		c-2.8-0.7-5.5,0.4-6.4,3.4c-0.3,0.8-0.8,4.1,1.1,3.7c1-0.2,1.1-3.1,1.5-3.9c1.4-2.8,3.9-3.1,6-0.4c3.6,4.7-2.6,8-5.9,10.3
		C3.8,24.3,4.5,19.7,2,20.1z"/>
	<path class="st0" d="M9.5,37.9c-0.5-2.6,1.2-3.3,2.2-5.2c0.5-1,0.1-7.2,2.1-7.3c1.8-0.1,0.4,5-0.1,5.7c1.6,1.1,3.9,2.1,5.3,3.5
		c0.9,0.9,1.7,4.8,2.5,4.5c-0.6,3.4-2.2-1.9-2.5-2.2c-1.5-1.7-3.7-2.8-5.7-4.2C12.6,34.8,10.6,36.1,9.5,37.9z"/>
	<path class="st0" d="M22.9,31.9c0.8-4.8,6.7-4.6,7.6,0c2.9-1.3,0.8,1.8,1.7,3.1c1.2,1.7,3.7,0.2,5-0.8c-1.4,2.3-4.9,3.9-6.8,1.5
		c-1.1-1.4-0.5-3.5-2.3-4.5c-7.7-4.3-1.7,10.6,1.1,4c0.2,2.2-2.8,2.8-4.4,2C22.5,36.2,22.9,34.2,22.9,31.9z"/>
	<path class="st0" d="M29.7,33.5c-0.5,2.6-2.3,3.1-4.5,2.3c1.1,0.8,1.9,1.8,3.3,1.5C30.3,36.9,30.9,34.8,29.7,33.5"/>
	<path class="st0" d="M36.3,20.2c0-0.7-0.4-3.7,0.3-4.3c0.9-0.7,2.3,11.6,2.2,11.2c2.8-5.7,9.8,0.1,7.1,5.2c3.3-1.2,5.4-3.2,5.8-6.5
		c0.2-1.8-1.3-9.2,0.5-10.1c2.1-1.1,1.2,8.8,1.4,9.9c0.2,1.6-0.5,2.1,1.1,2.2c0.8,0.1,5.5-3,6.2-3.5c0.3-0.2,1.1-0.3,1.3-0.5
		c0.1-0.1,0.5-1.2,0.4-1.2c0.7-0.6,0.5-3,1.9-0.5c1.2,2,0,8.1,0,10.3c0,6.7,0.5,13.6-2.6,19.8c-2.3,4.7-6.1,2.3-7-2.1
		c-0.5-2.7,0.6-22.1,3.5-21.6c-0.3-0.1-2.5,14.2-2.4,15.4c0.1,2.1,1.1,10.2,3.7,8.6c3.3-2.2,2.9-10.6,2.8-14.2c0-4.3-0.1-8.6-0.1-13
		c-2.3,0.7-4,2.4-6.1,3.3c-0.4,0.4-0.8,0.7-1.3,0.8c-0.7,0.5-1.5,0.4-2.2-0.3c0,0-0.3-0.5-0.4-0.5c-2.2,0.6-3.9,4.1-6.6,4.9
		c-1.6,0.5-7.6,0.7-7.3-2.2c0.2-1.8,4,1.4,5.4,0.7c2-1,1.1-4.6-0.4-5.6c-3-1.9-3.6,1.9-5.3,3.4c-2,1.8-1.5,0.7-1.5-1.8
		C36.9,25.5,36.8,22.9,36.3,20.2z"/>
	<path class="st1" d="M63.6,10.8c-0.2,0.8,0,2.8,1.3,2.4c1.6-0.5,0.2-6.6-0.6-7.4c-3.9-3.6-5,7.3-1.6,7.9c-0.7-0.1-1.5-5.4-0.2-6.2
		C63.3,7.1,63.7,10.3,63.6,10.8z"/>
	<path class="st0" d="M69.8,25.4c0.4-0.6,1.4-1.4,2-0.8c0.8,0.8-1.1,1.8-1.3,2.3c-0.2,0.8-2,1.2,0.3,1.5c0.8,0.1,2-0.5,2.4-1.1
		c2.2-3-3.1-5.2-3.1-7.5c0-2.6,8.7-2.1,8.4-4.3c-1.5-1.1,0.8-2.2,1.4-3.2c0.7-1.1,0.4-3.3,0.5-5.2c0.1-1.4,0.3-5,1.9-2.2
		c0.9,1.5,0.2,5.2,0.2,6.9c1.1-1.1,4-1.5,3.4,0.4c-0.2,0.8-2.8,1.1-3.2,1.8c-1.4,2.5,0.7,10.1,0.7,13c0,0.7,0.5,2.8-0.3,3.3
		c-1.7,1.3-1.4-2.5-1.4-3.4c-0.2-3.2,0.5-8.4-0.7-11.4c0.5,1.2-8.7,3.6-9,4c-0.1,0.1,5.1,6.9,1.6,9.6C70.7,31.4,65.4,28.3,69.8,25.4
		z"/>
	<path class="st0" d="M94.7,28.3c-0.1-8.2-0.4-16.8,1.1-24.9c0.6-3.3,2.4-4.3,2.8-0.3c0.2,2.3-1.1,4.4-1.6,6.6
		c-0.3,1.7-0.3,3.5-0.4,5.2C98,13.3,108.3,0.1,110,2.4c0.7,1-4.7,5.1-5.4,6c-2.5,3.2-4,4.4-0.2,6.6c2.1,1.2,4.1,1.5,6.5,1.6
		c-1-2.6,1.5-10.3,5.5-9.2c3.5,1,0.4,10.5,5.7,7c1.2-0.8,1.6-10.3,3.4-6.4c0.8,1.7-1,3.9,0.7,5.2c3,2.1,3.6-2.4,4.4-3.7
		c2.9-4.6,0.9,3.1,4.8,3c6.1-0.1,0.1-9.1,4.1-10.1c2-0.5,0.5,4.1,1,5.2c0.6,1.3,1.2,0.9,2.5,1.6c2.7,1.5,4.2,2.4,5.4,5.4
		c0.2,0.4,1.2,4.1,0.9,4.2c-0.9,0.3-3.8-6.4-4.7-7.1c-1.1-0.9-3.5-2-4.7-1.5c-2.1,0.8-2,4.5-5.6,4.1c-2.5-0.3-1.8-1.3-3.9-0.9
		c-1.6,0.3-2.8,1.3-4.5,1.3c-0.7,0-1.1-0.5-2-0.3c-0.5,0.1-0.5,0.8-1,1c-1.9,0.8-2.6,0.7-4.6,0.7c-1.6,0-1.8,0.3-3.6,1.3
		c-3.1,1.6-6.8,1.5-10,0c-2.4-1.2-6.1-4-8.5-0.2c-0.6,0.9-0.2,13.3,0.4,13.3C95.9,30.5,95,29.1,94.7,28.3z"/>
	<path class="st1" d="M122.3,26.4c-1,2.5,3.3-0.8,3.6-0.9c3.2-1.7,6.9-2,10.5-2.4C131.6,20.9,126.2,23.7,122.3,26.4z"/>
	<path class="st1" d="M125,29.1c0.1,2.6,2.9,0.3,3.7-0.3c3.1-2.1,6.9-3.5,10.5-4.3c-3.3-0.1-6.1,0.9-9.1,2.1
		C128.7,27.2,125.9,27.7,125,29.1z"/>
	<path class="st1" d="M141.9,22.8c-0.2-2.2,2.6-2.6,2.9-0.4C145.2,24.9,142.8,24.4,141.9,22.8z"/>
	<path class="st2" d="M113.4,10.8c0,0,2.4-3.5,3.4,0v3.5c0,0-4.8,3.5-4.9,0C112.1,13,112.6,11.7,113.4,10.8z"/>
</g>
</svg>
