<svg xmlns="http://www.w3.org/2000/svg" viewBox="0 0 26.95 26.95"><defs><style>.cls-1{fill:#ac3b61;}.cls-2{fill:#eee2dc;}</style></defs><title>logo_icon_1</title><g id="Layer_2" data-name="Layer 2"><g id="Layer_1-2" data-name="Layer 1"><circle class="cls-1" cx="13.48" cy="13.48" r="13.48"/><path class="cls-2" d="M2.29,15.06c-1,2.55,3.28-.78,3.57-.93,3.23-1.65,6.92-2,10.46-2.41C11.56,9.52,6.14,12.38,2.29,15.06Z"/><path class="cls-2" d="M5,17.72c.13,2.59,2.88.25,3.72-.32a29.24,29.24,0,0,1,10.49-4.27,21.77,21.77,0,0,0-9.08,2.08C8.7,15.8,5.91,16.32,5,17.72Z"/><path class="cls-2" d="M21.9,11.39c-.19-2.18,2.63-2.62,2.91-.41C25.13,13.49,22.81,13.07,21.9,11.39Z"/></g></g></svg>