<svg xmlns="http://www.w3.org/2000/svg" xmlns:xlink="http://www.w3.org/1999/xlink" viewBox="0 0 352 352"><defs><style>.cls-1{stroke:#231f20;stroke-miterlimit:10;stroke-width:2px;}.cls-2,.cls-3,.cls-4{fill:#d5af34;}.cls-3{font-size:12.85px;}.cls-11,.cls-3,.cls-4,.cls-7{font-family:VarelaRound-Regular, VarelaRound Regular;}.cls-4{font-size:24px;}.cls-5{fill:url(#radial-gradient);}.cls-6{fill:url(#radial-gradient-2);}.cls-23,.cls-7{font-size:12px;}.cls-11,.cls-7{fill:#722f37;}.cls-8{letter-spacing:-0.07em;}.cls-9{letter-spacing:-0.08em;}.cls-10{letter-spacing:0em;}.cls-11{font-size:8px;}.cls-12{letter-spacing:-0.01em;}.cls-13{letter-spacing:0em;}.cls-14{letter-spacing:-0.01em;}.cls-15{letter-spacing:0em;}.cls-16{letter-spacing:0em;}.cls-17{letter-spacing:-0.01em;}.cls-18{letter-spacing:-0.01em;}.cls-19{letter-spacing:0em;}.cls-20{letter-spacing:-0.04em;}.cls-21{letter-spacing:-0.03em;}.cls-22{letter-spacing:0em;}</style><radialGradient id="radial-gradient" cx="159.18" cy="171.84" r="22.47" gradientUnits="userSpaceOnUse"><stop offset="0.33" stop-color="#d5af34"/><stop offset="0.98" stop-color="#722f37"/></radialGradient><radialGradient id="radial-gradient-2" cx="191.14" cy="171.84" r="22.47" xlink:href="#radial-gradient"/></defs><title>mashup</title><g id="Layer_2" data-name="Layer 2"><g id="Layer_1-2" data-name="Layer 1"><g id="FRONT-PART"><rect class="cls-1" x="1" y="1" width="350" height="350"/><g id="outer_circle" data-name="outer circle"><path class="cls-2" d="M330,171c0,1.43.79.92.94,1.14C330.7,169.75,329.78,171.09,330,171Z"/><polygon class="cls-2" points="326.16 147.72 326.57 148.08 325.14 144.82 326.16 147.72"/><path class="cls-2" d="M321.17,126.41c-.37,1.2.21,3.08,1,5.16a25.14,25.14,0,0,1,1.81,6.34l-.17.7,1.51,1.47c-.65-2.3-1.41-4.93-2.26-7.34A44.36,44.36,0,0,1,321.17,126.41Z"/><path class="cls-2" d="M320.09,114.27c-.25.89-1.39-2.22.86,2.65,0-.27,0-.36-.06-.52C320.71,116,320.47,115.34,320.09,114.27Z"/><path class="cls-2" d="M320.89,116.4c.91,2.18-.12-1.6,0,0Z"/><path class="cls-2" d="M316.37,106.53l1.73,2.62c0-.72-1-3.28-.4-2.44C316.13,103.91,316.11,104.66,316.37,106.53Z"/><path class="cls-2" d="M314.19,104.33c.31.44.61.89.88,1.35C315.08,105.36,315,105,314.19,104.33Z"/><path class="cls-2" d="M316.87,108.58l-1.8-2.9c0,.5-.43.74.79,1.34C315.36,107,316,107.38,316.87,108.58Z"/><path class="cls-2" d="M317.46,110.41a12.65,12.65,0,0,1,.49,2.23c0,.42-.21.27-1.05-1,1.22,2.66,1.92,3.73,2.08,3.43a2.87,2.87,0,0,0-.23-1.42A19.77,19.77,0,0,0,317.46,110.41Z"/><path class="cls-2" d="M319.41,125.8c.11.76.22,1.51.28,2.27l1,1.74a11.72,11.72,0,0,1-.64-2.44C319.83,126.44,319.59,125.67,319.41,125.8Z"/><path class="cls-2" d="M307.8,89.22c-.36,0-.12,1.31-.33,1.7.52.57,1,1.18,1.47,1.78C308.57,91.55,307.5,89.59,307.8,89.22Z"/><path class="cls-2" d="M307.47,90.92l-2.28-2.59C306.78,90.92,307.29,91.26,307.47,90.92Z"/><path class="cls-2" d="M312.52,104.55l.87,1.11.82,1.14,1.64,2.3c-1.25-1.86-2.46-3.73-3.83-5.49Z"/><path class="cls-2" d="M300.44,78.37c.57.37,1.13.77,1.7,1.16l-1.44-1.1-1.49-1Z"/><path class="cls-2" d="M294.91,71.65c1.4.72-.54-2.14.73-1.21a27.48,27.48,0,0,0-4.88-4A20,20,0,0,1,294.91,71.65Z"/><path class="cls-2" d="M288.18,64.68c.76.6,1.63,1.15,2.58,1.76A17.77,17.77,0,0,0,288.18,64.68Z"/><path class="cls-2" d="M302.09,83.45a4.53,4.53,0,0,0-.85-2.69l.08,1.59Z"/><path class="cls-2" d="M301.33,82.4v-.05L299.69,80Z"/><path class="cls-2" d="M302.28,83.72l-.19-.27C302.1,83.6,302.12,83.68,302.28,83.72Z"/><path class="cls-2" d="M309.05,96.39c-1.41-1.5-3.89-4.78-2.54-1C307.72,96.35,306.94,94.16,309.05,96.39Z"/><path class="cls-2" d="M302.36,85.68c.64,1,1.2,2.07,1.8,3.11.15-.18.07-.91.8-.21C304.09,87.61,303.26,86.62,302.36,85.68Z"/><polygon class="cls-2" points="301.12 84.4 302.36 85.68 301.65 84.55 301.12 84.4"/><path class="cls-2" d="M291.78,69.81a15.58,15.58,0,0,1-1.87-1.63c-.63-.6-1.28-1.23-2-1.91.65.81,1.35,1.59,2,2.41s1.31,1.62,2,2.38C292.31,71.1,293.26,71.46,291.78,69.81Z"/><path class="cls-2" d="M296.52,75.86l-.25-.25C296.35,75.83,296.43,76,296.52,75.86Z"/><path class="cls-2" d="M274.18,53.26l.13.31.15-.06Z"/><path class="cls-2" d="M292,71.43a7.88,7.88,0,0,0,2.43,2.34c-.82-.83-1.67-1.72-2.53-2.71C291.74,71,291.66,71.08,292,71.43Z"/><path class="cls-2" d="M284.17,61.16l1.58,2.23C285.41,62.62,284.54,61.19,284.17,61.16Z"/><path class="cls-2" d="M296.13,75.05l.18.16C296.13,74.7,296.1,74.8,296.13,75.05Z"/><path class="cls-2" d="M296.13,75.05a13.16,13.16,0,0,0-1.68-1.28c.64.69,1.25,1.33,1.82,1.84A2.55,2.55,0,0,1,296.13,75.05Z"/><path class="cls-2" d="M266.33,54c.35-.23,1.41.12,2.66.88a11.42,11.42,0,0,1,3.67,3.4c2.92,1.75,3-1.62,1.65-4.73-.32.22-.47.39-3.56-1.42.77,1,5.34,5.8,2.63,4.41a15,15,0,0,1-3-2.54,16.24,16.24,0,0,0-1.27-1.83c.45,1-.94.35-2.43-.3s-3.16-1.21-3.18-.35c1.21.61,2.34,1.33,3.5,2C266.94,53.78,265.58,53.17,266.33,54Z"/><path class="cls-2" d="M279.37,58.09l1.13.94a37,37,0,0,1-3.07-4.19c-2.11-1.32-2.68-1.42-3-1.33,1.78,1.62,3.62,3.17,5.35,4.84Z"/><path class="cls-2" d="M285.23,63.61c-1.38-.26-4.2-2.35-3.3-.23a10.83,10.83,0,0,0,2.7,2.11,6,6,0,0,1,1.94,1.08c-4.91-4.85,1.72,1.1-1.38-2.85,1.05.88,1.93,1.74,2.75,2.55-.78-1-1.52-1.94-2.19-2.88l.07.16,0,0h0c.13.3.15.41,0,.13l-.11-.1a.85.85,0,0,1-.45,0c-1.26-1.58-.06-.38.45,0,0,0,.11,0,.15,0a0,0,0,0,1,0,0c-.85-.8-1.74-1.55-2.64-2.29L280.5,59C281.46,60.15,282.86,61.35,285.23,63.61Z"/><path class="cls-2" d="M303.07,93.26c-.05-.22,0-.24.05-.29C302.8,92.66,302.65,92.56,303.07,93.26Z"/><path class="cls-2" d="M302,90.64a5.34,5.34,0,0,1,1.67,1.91c.53,1.31-.36.21-.56.42.72.68,2.32,2.55,1.07-.25l-.36-.34c-1.22-2.46-2.24-6-1.88-5.71A9.47,9.47,0,0,0,302,90.64Z"/><path class="cls-2" d="M294.08,76.75c-1.26-1.43-2.64-2.76-4-4.1l1.33,2.67.25-.4C293.6,77.52,293.54,76.66,294.08,76.75Z"/><path class="cls-2" d="M274,52.49l1.17-.19c-1.11-.43-2.3-.75-3.43-1.12Z"/><path class="cls-2" d="M268,47.91l.69-.46c-.62-.28-1.27-.53-1.9-.79Z"/><path class="cls-2" d="M50.18,246.16l1,1.27A14.15,14.15,0,0,0,50.18,246.16Z"/><path class="cls-2" d="M44.72,236l-.48-.09C44.68,236.27,44.92,236.39,44.72,236Z"/><path class="cls-2" d="M93.62,40.38c-2.48.7-5.48,1.27-4.73,1.84l1.12.31A16.45,16.45,0,0,1,93.62,40.38Z"/><path class="cls-2" d="M28.27,142.69l.39-.64-.45-1.75C28.23,141,28.21,141.83,28.27,142.69Z"/><path class="cls-2" d="M31.5,145,30.41,148A23,23,0,0,0,31.5,145Z"/><path class="cls-2" d="M93.56,291.2c.67.12,1.33.24,2,.31C93.19,289.9,94,291,93.56,291.2Z"/><path class="cls-2" d="M197.19,19A41.9,41.9,0,0,0,192,17.81C194.46,18.63,196.41,19.63,197.19,19Z"/><path class="cls-2" d="M39.85,246.66c.65.83,1,1.13,1.18,1C40.37,246.81,39.92,246.37,39.85,246.66Z"/><path class="cls-2" d="M185.77,17.29c.37.12.73.19,1.11.29a31.22,31.22,0,0,1,5.07.23A12.41,12.41,0,0,0,185.77,17.29Z"/><path class="cls-2" d="M295.42,253.29c.12-.12.25-.28.37-.38C295.71,252.8,295.59,253,295.42,253.29Z"/><path class="cls-2" d="M327.56,192.66c0,.7-.17,1.83-.3,2.89A16.18,16.18,0,0,0,327.56,192.66Z"/><path class="cls-2" d="M242.16,31.87c1.47.65.28,0,0,0Z"/><path class="cls-2" d="M247.49,38.43c-.35-.07-.63-.08-.76.08A1.07,1.07,0,0,1,247.49,38.43Z"/><path class="cls-2" d="M170,22.42h-.13C170.33,22.58,170.25,22.55,170,22.42Z"/><path class="cls-2" d="M244.15,33.31c-.49-.37-1.07-.77-1.71-1.17C242.7,32.35,243.22,32.71,244.15,33.31Z"/><path class="cls-2" d="M244,32.79l1.21.71C245.5,33.47,245.38,33.3,244,32.79Z"/><path class="cls-2" d="M240.11,31c.84.37,1.6.76,2.33,1.15-.27-.18-.37-.28-.28-.27Z"/><path class="cls-2" d="M194.5,318.23l.34,0C196.31,317.72,195.65,317.86,194.5,318.23Z"/><path class="cls-2" d="M68.18,72.9c0-.06,0-.1.09-.16l-.18.14Z"/><path class="cls-2" d="M65.07,77.36a7.5,7.5,0,0,1,3-4.48c-1-.13-2.06-.27-3.08-.37C65,74.15,65,75.76,65.07,77.36Z"/><path class="cls-2" d="M66.69,268.34,64.81,265c3.93,2.6,5.73,5.29,4.25,1.95-.59.35-1.49-.15-2.55-1.07a29.16,29.16,0,0,1-3.43-3.69,45.71,45.71,0,0,0-3.33-3.8c-1-1-1.82-1.61-2.45-1.32l-1-2.36c.39.59.58.59,1,1.18-1.74-4.65-3.68-1.83-6.78-7.33-1-2-1.35-3.52-.34-2.39l-3-3.88c-.64-1.26-.07-1.18.58.07-1.27-2.12-2.4-4.32-3.61-6.48h.1a32.13,32.13,0,0,1-3.18-3.64c-.43-1.89.65.75.76.17-.76-1.17-1.56-2.32-2.28-3.52,0-.92.49-.64,1.09.19a16.06,16.06,0,0,1,1.95,3.49,4.18,4.18,0,0,0-.91-4.15,15.51,15.51,0,0,1-2.69-7c.53,1.17,1.15,2.31,1.71,3.46a10.66,10.66,0,0,0-.38-4.33,44.64,44.64,0,0,1-1.07-5.51c-.16,1.08.49,9-1.57,5a13.75,13.75,0,0,0-1.92-5c.92-.31.06-2.49-.8-5.29l1.29-.14a10.07,10.07,0,0,0-1.42-2.59,9.47,9.47,0,0,1-1.28-1.64c-.67-3.48.12-4.39.82-5.36-.78-5.56-.88,4.13-2.29-2.4-.08-1.18-.22-2.25-.39-3.3s-.31-2.06-.52-3.1c-.43-2.08-1.09-4.26-1.63-7.06.19-3.33.82.52,1.1-.69l-1.24-2.85c0-.72.3-.5.46-.39-.52-2.45-1.3-.13-1.76-4-.69-.5-.3-2.54.22-5a28.51,28.51,0,0,0,.66-3.93,12.67,12.67,0,0,0-.24-3.91c.45-1.16.74.62,1.26.29-.27-3.31-.36-4.75-.5-6s-.22-2.42-.59-5.23c.47-1.51.93-3,1.51-4.48-1.55,3.22-1.91-1.25-2.14-5.28-.67,1.13-1.25,2.1-1.57,2.77l.21-3.15c.07-1.06.23-2.09.34-3.14.38-.69.66,0,1,1.13,0-.44,0-.85-.05-1.18,1-2.07,1.42-.77,1.77.93l-1.27,2c.49,1.67,1.08,3.22,1.88,3a8.6,8.6,0,0,1,0-2c.14.43.28.71.43.56s0-.87-.1-1.9l1.71-1.05-.48-.45,1.32-3.77c.43-1.25,1-2.47,1.48-3.7,0-1.46,0-2.9,0-4.37s.13-2.95.25-4.55c.07-.8.15-1.63.25-2.49s.3-1.72.5-2.64.43-1.88.7-2.88a26.73,26.73,0,0,1,1-3.13c0,2.49,1.37,1.11,2.45,1.72C39,115.27,38.49,117,38,119l-.77,3.16a20.49,20.49,0,0,1-1,3.31c.91-2.27,1.3-1.56,1.29-.91.45-2.77,1.19-5.46,1.82-8.22.44.28.78-.06,1.15-.7s.87-1.55,1.5-2.46c-1.26.35-.92-1.2-.16-3.27.19-.52.4-1.07.63-1.63s.51-1.1.76-1.64a25.32,25.32,0,0,0,1.2-3c.7.13.93,1.17-1.1,4.78a6.62,6.62,0,0,0,2-4.86,6.47,6.47,0,0,1,2-4.84c-.49.89-.86,1.32-.76,1.84a17.56,17.56,0,0,1,2.22-4.28c.9-1.31,1.76-2.08,1.63-1.36l-.54.86c1-1.38,2.13-3.15,3.33-5s2.61-3.83,3.78-5.7,2.36-3.53,3.1-4.91,1.15-2.42,1-2.87a7.33,7.33,0,0,1,1,2.52c1.09-4.25,2.29-8.61,3.83-12.88.32,1.77,5.62,1.26,2.38,5.85a23.49,23.49,0,0,0,2.1-1.86,38.55,38.55,0,0,0,2.69-3.14c-.94.59-3.46.4-2.47-.75a22.92,22.92,0,0,0,3.46-1.62l1.33-.81a26.17,26.17,0,0,1,2.53-1.35c-1.44.84-1.61-2.05.44-3.72-.09.52,1.63,1.57,1.08,2.37l1.7-3C81.71,57.9,82.34,57,83,56c-1,1.32,1,1.66,2.48,1.28-.39,0,.7-.82,2-1.83s3-2.05,3.66-2.64L88.63,54a14.92,14.92,0,0,0,5.12-5.32,18.39,18.39,0,0,1,1.87-2.53,12.44,12.44,0,0,1,3.45-2.69c-.54.85-.4,3.53,2.91,2,.22-.46.56-1.22,1-2.18a26.18,26.18,0,0,1,1.89-3.26,22.72,22.72,0,0,1,6.64-6.74l1.43.07c1.45-.92,2.88-1.88,4.39-2.7-1.18,1.33-3.37,3.86-5.7,6.33-1.18,1.21-2.31,2.59-3.41,3.77s-2.12,2.26-3,3.13c2.64-.8,1,.33,4.6-1.57,1.54-.09-1.53,1.84-2.56,2.41,2.84-1.3,5.64-2.65,8.55-3.75-.47-.52,1-1.57,2.55-2.6s3.15-1.87,2.77-2.33c-3,1.62-5.93,3.55-8.84,5.34-.48-.52.45-2,2.33-3.66a21.14,21.14,0,0,1,3.45-2.54,28.6,28.6,0,0,1,4.5-2.06c1.79-.13-.36,2.71,0,3.08a11.9,11.9,0,0,1,3.14-1.81A11.85,11.85,0,0,1,129,33.24l-2.46,1.59a13.57,13.57,0,0,0,4.56-2.12,10.12,10.12,0,0,1,5.36-1.51,12.11,12.11,0,0,1,3,0c1,.09,1.9.11,1.94-.31-2.79-.93-4.52-5.4-3.08-6.91.28,0,2.44-.14,4.74-.21.58,0,1.16,0,1.74,0l1.64.06a17.13,17.13,0,0,1,2.37.25c2.75.73-3.32,3.5-1,4.13,0-.38,1.34-1.07,1.9-1.32,1.66,0-.47,1.24,3,.45.38-1.43,7.18-.8,1.49-1.36a14.41,14.41,0,0,1,3.65-.47c1,0,2.09,0,4.13-.2-.69-.38.15-1.2,1.63-2A16.56,16.56,0,0,1,169,21.45c-.2.35.62.78,1,1,1.82,0,3.42,0,4.91,0s2.86.23,4.22.34l4.12.36c1.41.17,2.91.32,4.59.45.6.37,3.77,1,2.34,1.5a12,12,0,0,1,4-.24c3.8,1.67-4.58-.4-1.74,1.39.34-.72,5.42-.51,8.39-.38-.34-.66-2-1.09-4-1.18s-4.21,0-5.7.06c.08-.84,1.45-1.54,3.72-2a25.24,25.24,0,0,1,4-.49c1.52,0,3.22,0,5,.13,2.86.27,3.39.77,3.36,1s-.64.48-.14.48a32.27,32.27,0,0,0,6,1,26.2,26.2,0,0,0,3.72.13,16,16,0,0,1,3.37.21A18.84,18.84,0,0,1,225,27.1c3,2.16-.56,2.08-.07,3.06a25.74,25.74,0,0,1-5.29-2,30.76,30.76,0,0,0-4.25-1.68l3.56,1.54a18.8,18.8,0,0,1-6.05-1.39,18.41,18.41,0,0,0,3.87,1.57l3.06,1,3.47,1.21c1.21.43,2.46.83,3.69,1.31l3.64,1.51c1.19.52,2.36,1,3.42,1.54s2,1.09,2.92,1.61c1.46.26,3.9,1,3,.08l-2.42-.93c-1.82-1.77,5,.93,2.13-.8a52.32,52.32,0,0,1,5.49,1.67,30.64,30.64,0,0,1,3,1.25,28.86,28.86,0,0,1,3,1.87l.19,1.53c.09-.36-2.44-2.25-3.82-2.6,1,.26,2.46,1.58,4,2.77a17.43,17.43,0,0,0,2.29,1.58,3.93,3.93,0,0,0,2.16.68c-.83-.85-1.63-1.75-2.51-2.55,1.71.6,3.59,1.33,5.57,2.15a25.39,25.39,0,0,1,2.92,1.43,20.06,20.06,0,0,1,2.69,1.93c-.95-2.16-.89-.49-2.7-3.47,1.34,2.93-9.59-6.21-6.84-2.28a11.28,11.28,0,0,0-3.36-3.26,30.13,30.13,0,0,1-4.21-3.4c-.07.42,1,1.37-2.27-.52a4.68,4.68,0,0,1-.89,0l-.21-.14.16.13c-.17,0-.19,0,.06.05a5.56,5.56,0,0,1,1.42,1.42,18.45,18.45,0,0,1-4.69-1.4A46.88,46.88,0,0,0,236.4,32c-1.92-1.08,1-.05.1-.94-1-.2-2-.37-3-.5.08-.94-4.92-3.55.15-2.11l-4.38-1.77a27.06,27.06,0,0,0-4.22-2,19.13,19.13,0,0,0-4.17-1.2c-2.09-.8-5.68-.59-3.63-.73-1.21-.24-2.42-.51-3.63-.73l-3.66-.56,0-.23c-3.53-1-7.31-1.15-11.14-1.67a70,70,0,0,1-11.9-2c-1.23,0-2.48.05-3.93,0a46.92,46.92,0,0,1-5.16-.19l-.79-.79c-1.58.05-3.95-.05-6.1-.13s-4.09-.1-4.75.39a9.5,9.5,0,0,0-4-.66c-.85,0-1.77,0-2.74.09s-2,.24-3,.39c-2,.33-4.15.63-6.08,1.05s-3.68.76-5.08.91v1l-1.41.24-1.39.35c-.92.24-1.86.49-2.81.77l-2.95.91c-1,.34-2.06.76-3.18,1.17l.52.79c-1.84.92-4.4,1.4-7.21,2.15-1.41.36-2.9.71-4.42,1.12s-3,1-4.51,1.6c.28-.48,1.84-1,3-1.23a22.18,22.18,0,0,0-5.72,1.56,53,53,0,0,0-5.3,2.86c-1.73,1-3.34,2.13-5,3.06a28.53,28.53,0,0,1-5,2.29,10.7,10.7,0,0,1-3.66,2.09,1.68,1.68,0,0,0,.35-.26c-.16.08-.39.21-.62.35a22.73,22.73,0,0,0-2.31.86c.73-.21,1.4-.45,2-.67a44.19,44.19,0,0,0-4.34,3.17L90,42.53l-.37.28c-1.85.76-1.07,1.22.21,1.27A12.39,12.39,0,0,0,88,46c-1.09-.18-2.08.68-3.13,1.57a12.06,12.06,0,0,1-1.65,1.24,3.61,3.61,0,0,1-1.85.61c-.28.73-2.15,2.4-3.91,4.12s-3.27,3.67-3.1,4.65c-.2-.12-.71.18.09-.53a16.48,16.48,0,0,0-4.61,4.36l-1.53-.23-1.16,2.24L66.1,66.38c-2.53,1.58-3.71,2.18-2.38-.58-.95,1.53-1.65,2.56-2.19,3.35s-.92,1.38-1.29,1.91a32,32,0,0,0-2.77,4.74L57,75.07c-1.3,1.7-2.55,5-3.86,5.61a25.12,25.12,0,0,0-4,4.37c-.4.53-.83,1.07-1.24,1.66l-1.25,1.87L44,92.69c-3.52,5.85-7.15,12.7-10.2,18.09,1.57-.62.72.56-.28,2.07s-2.11,3.39-1.35,4c-.78.46-1.7,2-1.42-.08-.22.76-.46,1.46-.7,2.11s-.43,1.29-.65,1.87c-.43,1.18-.86,2.21-1.25,3.21A12.92,12.92,0,0,0,27.05,130c-.73.55-.41-1.51-.9-1a5.36,5.36,0,0,1-.59,2.61c-.49.53-.19-1-.15-2.05a21.77,21.77,0,0,0-.72,3.8,7,7,0,0,0,.27,2.32,3.41,3.41,0,0,0,1.86,2,13.59,13.59,0,0,0-1.35,3.71,8.91,8.91,0,0,0,.29,3.35c-.71,1-1.58,2.76-1.06-1.17l-.67,3-.47,2.18-.34,2.35c-.42,3.14-.66,6,0,6.21A9.64,9.64,0,0,0,23,161l-.29,3c-.07.81-.08,1.49-.12,2.16-.05,1.34-.09,2.67-.09,5.12l.25-1.35c1.44,1.94.33,4,.61,8l-.16-.11A27.65,27.65,0,0,0,23,182.4a12.2,12.2,0,0,0,.24,1.88,9.43,9.43,0,0,1,.21,1.85c0,.46,0,1,0,1.76s0,1.64,0,2.76l.89-.59c1.08.29,1,2.26.88,4.81s-.12,5.66.73,8.13l.21-1.94c.55,1.32.33,3.36,0,5.48s-.85,4.31-.55,5.72c0,.65-.56-.87-.89-1.7.85,7.61,1.47.63,3.27,5.93-.35,1.19-2.07-.78-1.05,2.88,0,1,1.43,3.44,2.9,6.26.79,1.38,1.59,2.87,2.24,4.33a21.13,21.13,0,0,1,.84,2.18,12.23,12.23,0,0,1,.57,2c0-1.25,0-2.47,1.46-.27a22.08,22.08,0,0,1,1.21,3.19l.57,1.85.68,1.87c.94,2.48,1.95,4.9,3.61,6,.13.51.1.74,0,.82.47.61,1,1.43,1.68,2.33s1.31,1.89,2,2.78a20.51,20.51,0,0,0,3.72,4c-.34,1.07.32,2.47,1.37,4.05a33.91,33.91,0,0,0,4.06,4.87c1.53,1.57,3,3.09,3.94,4.26s1.43,2.09.84,2.57c1.05,1.15,2.06,2.34,3.14,3.46l3.28,3.32-.39,0A25.52,25.52,0,0,0,67.41,282a26.51,26.51,0,0,0,2.17,1.69,16.37,16.37,0,0,0,3.3,1.76c.9,1.05,0,.61-.24.65,3.09,3.08,4.8,4.79,6.67,6a37.92,37.92,0,0,0,7.08,3.71l0,1.25a11.32,11.32,0,0,1,2.4,1.68c1.08.91,2.51,2,4.09,3.19.79.6,1.63,1.23,2.51,1.86s1.85,1.17,2.81,1.74,1.94,1.12,2.94,1.63a24.15,24.15,0,0,0,3,1.27c-.12.06-.37.15-1,0,4.53,1.74,9.43,4.83,14,7s8.59,3.66,10.81,2.51c2.08.44,4.22.64,6.31.95-7.74-2.49,1.59-1.17-1.45-2.66a16.62,16.62,0,0,1,4.48,1.78c1,.58,1.23,1-.68.62l-.54-.34c-1.91,1.56,9.65,3,9.2,4.14a210.84,210.84,0,0,0,23.64,3.23l5.87.34c2,0,3.89,0,5.82,0,1,0,1.94,0,2.9,0l2.88-.16c1.91-.13,3.83-.17,5.71-.42-.63-.42-1.25-.81-1.88-1.27,1.75-.13,3.48-.37,5.23-.55,1.41.17,2,.9-1.76,1.32a7.17,7.17,0,0,0,3.88-.57,6,6,0,0,0,2.34-1.32c7.36-.71-2.56,2.19-.34,1.83l3-.65-.71,0c1.18-.51,1.79-.93,2.66-1.32a12.93,12.93,0,0,1,1.62-.56,25.88,25.88,0,0,1,2.6-.66c2.85-.36,1.64.54,2.75.34,0,.11.4.07,1.7-.35,2.17-.52,4.32-1.12,6.48-1.68l-2.89-.38a33.89,33.89,0,0,1,3.59-1.38c.75-.33.76-.47-.9-.68,2.42.31,8.39-1.42,13.91-3.71,1.4-.52,2.73-1.17,4-1.75l3.54-1.63a38,38,0,0,1,4.41-2c.82-.66,1.66-1.26,2.52-1.84s1.72-1.2,2.63-1.77c1.82-1.16,3.83-2.22,5.94-3.57-1.18.47-2.48-.24,1.21-2.42,0,.78.51,1,1.26.79a10.37,10.37,0,0,0,2.92-1.37c1.12-.68,2.37-1.47,3.58-2.12a17.76,17.76,0,0,1,1.78-.85,7.09,7.09,0,0,1,1.58-.52c-1.62.47.77-1.51,2.93-3.4a15.71,15.71,0,0,0,2.48-2.52c.42-.61.27-.84-.95-.39,2.87-2.2.81.62,3.31-.7.72-.82,1.53-1.58,2.31-2.41s1.61-1.63,2.47-2.44L284,280.5l2.69-2.57c.9-.88,1.86-1.73,2.76-2.65l2.68-2.83a57.14,57.14,0,0,0,5.07-6.15c-.17-.34-1.7.73-.7-1.38,1.65-1.1,3.16-2.32,4.75-3.51a5.47,5.47,0,0,0,.55-2.37,3,3,0,0,1,.51-1.24,7.43,7.43,0,0,1,1.55-1.65c-.54.29-1.35.73-.68-.52,6.43-8.27,11.09-18,14.8-28.07s6.56-20.37,9.85-30.66c-1.18,2.74-.9.82-.55-1.35-.41,1.39-.85-.16-1.37,0,.81-2.86,1.67-5.73,2.4-8.65-.6-.87-.44-3.24-.28-5.53a21.43,21.43,0,0,0,.05-3.17c-.06-.9-.2-1.57-.51-1.81l.15,2.81c-.7-1.9-1.54-.61-2.5,1s-2.1,3.59-3,3.25a7.3,7.3,0,0,1,.1,3.5,41.66,41.66,0,0,1-1.19,4.08,43.44,43.44,0,0,0-1.18,4.53,13.27,13.27,0,0,0-.1,5c-.64,1.36-.39-1.34-1-.65.56,1.8.22,3.81-1,7.37l-.1-.46c-.14.64-.28,1.26-.4,1.86s-.32,1.16-.48,1.71c-.32,1.11-.63,2.15-.94,3.14a54.65,54.65,0,0,1-2.06,5.58l-1.14,2.76c-.38.94-.88,1.88-1.35,2.9-1,2-2,4.29-3.34,6.87l1.22-.4a17.9,17.9,0,0,1-2.34,3.58c.1,3.26,3-6.43,3.35-3.37a11.22,11.22,0,0,0-2.53,3.52c-.89,1.64-1.95,3.56-2.94,5.49a44.27,44.27,0,0,1-3.1,5.15c-1,1.42-1.9,2.42-2.69,2.6-2.1,3.24,1.54-.38-.56,2.88l-1.06.54.11,1.25a7.32,7.32,0,0,1-2.06,2.08c-.6.38-1,.48-1.28.38a21.6,21.6,0,0,0,1.24-2.06,25.11,25.11,0,0,0-3.61,4.77,26.8,26.8,0,0,1-2.52,3.58c.86-.9,1.73-1.79,2.57-2.7-.73,1.09-1.55,2.17-2.37,3.28s-1.65,2.26-2.59,3.33c-1.87,2.16-3.71,4.43-5.76,6.5l-3,3.17c-1,1-2,2-3,3-1.93,2.06-3.92,3.91-5.65,5.83l.88-.17c-.68.72-1.26,1.33-1.79,1.83s-1,.88-1.45,1.21a24.33,24.33,0,0,1-2.26,1.57c-.72.43-1.43.91-2.43,1.56s-2.24,1.51-3.94,2.83l.19-.26a20,20,0,0,1-5,4c1.54-1.62-4,1.34-1.89-.69-.83.68-1.52,1.2-2.09,1.61s-1,.76-1.35,1a7.55,7.55,0,0,0-1.25,1.16c-.23.29-.38.56-.72,1a14.3,14.3,0,0,1-1.94,2.13l-1.51-.07a22.42,22.42,0,0,1-1.69,1.76,16.4,16.4,0,0,1-3.53,2.18c3-2-3,.11.27-2.28a29.14,29.14,0,0,0-5.61,2c-1.59.72-2.94,1.41-4.15,2.07-2.41,1.34-4.39,2.21-6.72,1.74-1.63,1.64.3,1.28,2.4.66s4.3-1.65,3.3-1c1,0,.37.63-.9,1.43a22,22,0,0,1-4.61,1.92c-1.39.45-2.76.23-4.66.07a21.39,21.39,0,0,0-3.29,0c-.63.06-1.32.15-2.06.29s-1.55.25-2.43.46c.7-.15.71-.31,1.41-.46a14,14,0,0,0-4,1,15.94,15.94,0,0,1-2.09.6,9.72,9.72,0,0,1-2.38.12c-1.61,1.55-4.24.68-4.53,2.34l6.51-1.53c-1.82.53-3.52,1.41-5.58,2.19a21,21,0,0,1-7.66,1.22,16.14,16.14,0,0,1,3.48-1.43c-1.86-.26-3.44.81-5.38.46.1-.42.65-.64,1.47-.88a28.35,28.35,0,0,1,3.15-.58c1.21-.17,2.54-.34,3.79-.59a15.91,15.91,0,0,0,3.36-1.14c-1-.17-2.81.49-4.19.83s-2.27.47-1.38-.51c-1.29,1.26-3.07,1.42-5.09,1.54a16.83,16.83,0,0,0-6.7,1l.27-1a13.79,13.79,0,0,1-3.77.73l2.52-1.3c-3.91,1.14-7.59-.65-11.33-.26,3.93.1,4.38.37,4.25.74s-.83.87.86,1.17a16.89,16.89,0,0,1-5.21.08,8.46,8.46,0,0,1-2.64-.93,15.9,15.9,0,0,0-2.82-1.19,25.48,25.48,0,0,0-5.75-.77c1.47,0,5.46,1,3.13,1.28a31.93,31.93,0,0,1-3.3-.7,15.63,15.63,0,0,1-2.64-1c-7.17-.71,1,1.1-2.15,1.3-2.29-1.42-3.58-.08-6.82-.26l.16-1c-1-.25-1.8-.42-2.43-.52a8.54,8.54,0,0,0-1.45-.2,1.87,1.87,0,0,0-1.29.36c-.54.37-1,.75-4.56-.45L142,314c-1.29-.2-2.59-.33-3.86-.57.35-.29.69-.55,1-.85a24.39,24.39,0,0,1-4.82-.77,30.34,30.34,0,0,1-4.49-1.68c.7,1-1.05,1.49-4.57.34-2.16-1.4,1.61-.33-3.29-2.1a7.34,7.34,0,0,1,2.1,0,5.55,5.55,0,0,1,2.49,1.24c.32-.22,1.29-.2,1.62-.42-2.34-1.4-6.23-2.48-8-3.14a10.45,10.45,0,0,1,1.8.95c-1.24-.26-2.5-.49-3.74-.77l-3.7-.94c-.93-.82,0-.69,1-.57-1.41-.55-2.59-.51-4.63-1.46.86-.45,1.08-1.19,4.09-.25-2.29-.66-4.5-1.53-6.75-2.34-.28-.51-2.8-2.51-1.84-2.34a30.48,30.48,0,0,0-6.26-3c-1.18-.55-2.39-1.11-3.56-1.76a15.87,15.87,0,0,1-3.29-2.23,5.58,5.58,0,0,1-1.81-.79c-1-.75-1.9-1.52-2.81-2.28S87,286.55,86,285.75s-1.88-1.58-2.92-2.36a30.18,30.18,0,0,0-3.43-2.34c-.51-1.09-1.07-2.12-1.52-3.24-3.52-2.91,2,4.41-3.84-.47-2.12-1.71-2.28-2.27-2-2.61s.86-.43.35-1.25a43.42,43.42,0,0,1-4.52-3,17.91,17.91,0,0,1-4.48-5.4A43.6,43.6,0,0,1,66.69,268.34Zm-29-48.12c.27.48.73,1.19,1.08,1.89a3,3,0,0,1,.56,1.86A2.45,2.45,0,0,1,38,222.51,22.71,22.71,0,0,1,37.69,220.22ZM32,134.8a6.82,6.82,0,0,1-1,3.41A12.64,12.64,0,0,1,32,134.8ZM225.63,26h-.14C223.15,24.78,224,25.22,225.63,26Zm4.92,2.24c.55.07.57-.07.4-.28a7.38,7.38,0,0,1-2.83-.9A4.06,4.06,0,0,0,230.55,28.21ZM212,321.55h-1.08C213.17,320.74,212.59,321.14,212,321.55Z"/><path class="cls-2" d="M31.14,144.73a.93.93,0,0,1-.6.37C30.62,145.56,30.8,145.6,31.14,144.73Z"/><path class="cls-2" d="M93.19,291.14l.13.11a.51.51,0,0,0,.24-.05Z"/><path class="cls-2" d="M149.91,28.32a7,7,0,0,1-2.09-.13C147.81,28.43,148.32,28.54,149.91,28.32Z"/><path class="cls-2" d="M257,39.47c-1-.58-2.08-1.06-3.12-1.57a9.09,9.09,0,0,1,2.53,1.87C256.42,39.53,256,38.89,257,39.47Z"/><path class="cls-2" d="M277,62.15c.43.25.76.71,1.19,1l.21-.42C276.82,61.26,275.52,60.52,277,62.15Z"/><path class="cls-2" d="M257.94,43.9c-.11.42.32.85,1.05,1.33.36.24.79.49,1.26.76l1.47.89c-.12-.08-.24-.15-.35-.24.61-.26.34-.69-.36-1.19A24.08,24.08,0,0,0,257.94,43.9Z"/><path class="cls-2" d="M262.18,47.18c.63.4,1.25.82,1.81,1.26C264.49,48.24,263.32,47.85,262.18,47.18Z"/><path class="cls-2" d="M237.09,30.31c1,.66,1.08-.65,1.54-.08.8-.21-1.09-.72-2.42-.91-.66-.1-1.19-.09-1.18.05S235.61,29.78,237.09,30.31Z"/><polygon class="cls-2" points="258.09 47.18 257.93 45.88 256.38 45.85 258.09 47.18"/><path class="cls-2" d="M242.36,37.23l3.23,2c0-.17.5,0,1.06.16C244.59,38.27,242.41,36.93,242.36,37.23Z"/><path class="cls-2" d="M246.65,39.36a16.38,16.38,0,0,0,2.72,1.35A23.75,23.75,0,0,0,246.65,39.36Z"/><path class="cls-2" d="M253.61,44.66l-.83-.77-2.26-1.39C251.55,43.23,252.62,43.88,253.61,44.66Z"/><path class="cls-2" d="M204.09,24,200,23.59c-.46.27.6.67,2.13.8C203.12,24.33,204.65,24.47,204.09,24Z"/><path class="cls-2" d="M215.48,29.57A4.34,4.34,0,0,1,214,28.35l-.44,1.17Z"/><path class="cls-2" d="M203.94,27.09c-.47.26-5.93-.06-.9.76C203.51,27.56,207.53,28.07,203.94,27.09Z"/><polygon class="cls-2" points="143.13 26.17 144.14 25.92 143.57 23.96 143.13 26.17"/><path class="cls-2" d="M96.06,51.14c4.21-2.11.26-1.68,4.18-3.42.68-1-3.21,1.42-2.47.47C95.64,50.16,94.23,50.72,96.06,51.14Z"/><path class="cls-2" d="M97.77,48.19c.35-.31.7-.66,1.07-1A9.49,9.49,0,0,0,97.77,48.19Z"/><path class="cls-2" d="M329.79,181.05c.24-1.07.37-2.14.55-3.21l-.74,2C329.68,180.28,329.72,180.66,329.79,181.05Z"/><path class="cls-2" d="M328.48,174.83l1.32-.73-1.13-1.93A6.61,6.61,0,0,1,328.48,174.83Z"/><path class="cls-2" d="M37.67,211.47l-.37-.13c-.2.53,0,1.22.3,2.58Z"/><polygon class="cls-2" points="53.25 248.73 52.89 248.13 52.61 249.86 53.25 248.73"/><path class="cls-2" d="M75.7,274.14c-1-1-2.29-1.95-3.2-3C74.69,273.2,75,275.44,75.7,274.14Z"/></g><text class="cls-3" transform="translate(94.62 66.75) rotate(-36.91)"> </text><text class="cls-3" transform="matrix(0.81, -0.58, 0.58, 0.81, 96.77, 65.14)"> </text><text class="cls-3" transform="matrix(0.82, -0.57, 0.57, 0.82, 98.94, 63.58)"> </text><text class="cls-3" transform="matrix(0.83, -0.55, 0.55, 0.83, 101.15, 62.05)"> </text><text class="cls-3" transform="matrix(0.85, -0.52, 0.52, 0.85, 103.36, 60.55)">E</text><text class="cls-3" transform="matrix(0.88, -0.48, 0.48, 0.88, 108.64, 57.3)">S</text><text class="cls-3" transform="translate(114.09 54.29) rotate(-26.22)">T</text><text class="cls-3" transform="translate(118.86 51.9) rotate(-23.61)">A</text><text class="cls-3" transform="translate(125.96 48.8) rotate(-20.46)">B</text><text class="cls-3" transform="translate(132.39 46.41) rotate(-17.7)">L</text><text class="cls-3" transform="matrix(0.96, -0.27, 0.27, 0.96, 138.09, 44.62)">I</text><text class="cls-3" transform="translate(140.96 43.78) rotate(-13.77)">S</text><text class="cls-3" transform="translate(147.01 42.26) rotate(-10.64)">H</text><text class="cls-3" transform="translate(155.12 40.76) rotate(-7.55)">E</text><text class="cls-3" transform="translate(161.25 39.92) rotate(-4.43)">D</text><text class="cls-3" transform="translate(169.71 39.32) rotate(-2.07)"> </text><text class="cls-3" transform="matrix(1, -0.02, 0.02, 1, 172.39, 39.22)">I</text><text class="cls-3" transform="matrix(1, 0.03, -0.03, 1, 175.36, 39.12)">N</text><text class="cls-3" transform="translate(183.72 39.39) rotate(3.83)"> </text><text class="cls-3" transform="translate(186.38 39.54) rotate(5.79)">1</text><text class="cls-3" transform="translate(192.81 40.19) rotate(8.55)">9</text><text class="cls-3" transform="translate(199.23 41.15) rotate(11.34)">6</text><text class="cls-3" transform="translate(205.6 42.42) rotate(14.14)">2</text><g id="inner_circle" data-name="inner circle"><path class="cls-2" d="M45.31,173.12c0-1.21-.78-.77-.94-1C44.61,174.19,45.53,173.06,45.31,173.12Z"/><polygon class="cls-2" points="48.84 192.61 48.44 192.32 49.77 195.03 48.84 192.61"/><path class="cls-2" d="M53,210.44c.9-2.07-2.13-6.29-2.29-9.63l.2-.59L49.46,199c.56,1.92,1.24,4.11,2,6.12A30.5,30.5,0,0,1,53,210.44Z"/><path class="cls-2" d="M53.44,220.78c.29-.78,1.24,1.84-.69-2.23a2.47,2.47,0,0,1,0,.44C52.93,219.37,53.13,219.89,53.44,220.78Z"/><path class="cls-2" d="M52.77,219c-.76-1.82,0,1.38,0,0Z"/><path class="cls-2" d="M56.62,227.26,55.1,225.1c-.08.63.81,2.78.24,2.09C56.69,229.53,56.76,228.87,56.62,227.26Z"/><path class="cls-2" d="M58.6,229c-.27-.36-.53-.73-.77-1.11C57.8,228.2,57.9,228.55,58.6,229Z"/><path class="cls-2" d="M56.26,225.52l1.57,2.4c.05-.44.46-.67-.68-1.12C57.63,226.84,57,226.5,56.26,225.52Z"/><path class="cls-2" d="M55.79,224c-.33-1.44-.81-3.25.62-1.06-1-2.22-1.66-3.1-1.84-2.84S54.68,221.75,55.79,224Z"/><path class="cls-2" d="M54.71,210.88c-.07-.64-.14-1.27-.17-1.92l-.9-1.43a8.41,8.41,0,0,1,.53,2C54.33,210.35,54.52,211,54.71,210.88Z"/><path class="cls-2" d="M63.71,241.86c.35,0,.22-1.17.44-1.53-.45-.47-.86-1-1.28-1.46C63.16,239.84,64,241.51,63.71,241.86Z"/><path class="cls-2" d="M64.15,240.33l2,2.12C64.81,240.28,64.35,240,64.15,240.33Z"/><path class="cls-2" d="M60.23,228.74c-1.06-1.19-2-2.48-2.95-3.73,1.1,1.53,2.17,3.07,3.37,4.52Z"/><path class="cls-2" d="M69.9,251c-.52-.29-1-.61-1.53-.91l1.28.87,1.32.83Z"/><path class="cls-2" d="M74.55,256.62c-1.24-.55.34,1.89-.78,1.15A20.45,20.45,0,0,0,78,261,14.25,14.25,0,0,1,74.55,256.62Z"/><path class="cls-2" d="M80.25,262.42c-.66-.48-1.42-.92-2.24-1.4A12.43,12.43,0,0,0,80.25,262.42Z"/><path class="cls-2" d="M68.72,246.56a3.46,3.46,0,0,0,.59,2.34l0-1.41Z"/><path class="cls-2" d="M69.36,247.44v.05l1.36,2Z"/><path class="cls-2" d="M68.56,246.33l.16.23C68.72,246.43,68.71,246.36,68.56,246.33Z"/><path class="cls-2" d="M63,235.63c1.25,1.21,3.4,3.92,2.37.67C64.29,235.57,64.89,237.44,63,235.63Z"/><path class="cls-2" d="M68.63,244.6c-.52-.86-1-1.75-1.48-2.63-.15.18-.14.81-.78.25C67.13,243,67.85,243.83,68.63,244.6Z"/><polygon class="cls-2" points="69.71 245.64 68.63 244.59 69.22 245.54 69.71 245.64"/><path class="cls-2" d="M77.32,258a10.49,10.49,0,0,1,1.62,1.33c.53.49,1.08,1,1.65,1.58-1.09-1.34-2.19-2.76-3.29-4C76.94,256.9,76.08,256.65,77.32,258Z"/><path class="cls-2" d="M73.37,252.94l.22.2C73.54,253,73.47,252.82,73.37,252.94Z"/><path class="cls-2" d="M92.14,271.86l-.1-.28-.14.07Z"/><path class="cls-2" d="M77.23,256.58a5.56,5.56,0,0,0-2.08-1.92c.7.68,1.42,1.42,2.15,2.25C77.46,256.91,77.53,256.87,77.23,256.58Z"/><path class="cls-2" d="M83.66,265.34c-.37-.59-.82-1.24-1.27-1.93C82.64,264.09,83.33,265.34,83.66,265.34Z"/><path class="cls-2" d="M73.68,253.63l-.15-.13C73.65,254,73.69,253.85,73.68,253.63Z"/><path class="cls-2" d="M73.68,253.63a10.74,10.74,0,0,0,1.47,1,19.8,19.8,0,0,0-1.56-1.52A2.32,2.32,0,0,1,73.68,253.63Z"/><path class="cls-2" d="M99.26,270.52c-.33.25-1.25,0-2.31-.6a9.81,9.81,0,0,1-1.63-1.18,9.26,9.26,0,0,1-1.4-1.7c-2.5-1.38-2.87,1.75-1.88,4.54.3-.22.47-.41,3.1,1.05-.6-.93-4.36-5-2-3.9a9.82,9.82,0,0,1,2.49,2.12,11.58,11.58,0,0,0,1,1.62c-.33-.89.87-.41,2.16.08s2.72.89,2.81.08c-1-.49-2-1.07-3-1.62C98.69,270.8,99.86,271.26,99.26,270.52Z"/><path class="cls-2" d="M87.81,267.78l-1-.77a24.45,24.45,0,0,1,2.46,3.64c1.81,1.06,2.32,1.11,2.59,1-1.49-1.36-3-2.67-4.47-4.07Z"/><path class="cls-2" d="M82.89,263.17c1.25.12,3.66,1.83,3-.06-2.56-2.44-2.24-1.27-4-2.54,4.14,4-1.49-.87,1.05,2.5-.9-.72-1.64-1.44-2.34-2.12.65.83,1.26,1.66,1.8,2.46l0-.14h0c-.1-.26-.11-.36,0-.11,0,0,.07.05.09.07a.93.93,0,0,1,.42,0c1,1.35,0,.35-.42,0,0,0-.1,0-.14,0v0c1.44,1.32,3,2.49,4.51,3.74C86.06,266.05,84.88,265.05,82.89,263.17Z"/><path class="cls-2" d="M68.53,238c0,.18,0,.21-.08.25C68.74,238.46,68.88,238.53,68.53,238Z"/><path class="cls-2" d="M69.34,240.18a3.76,3.76,0,0,1-1.45-1.56c-.41-1.12.36-.21.56-.42-.63-.54-2-2.07-1,.3l.32.28c1,2.08,1.69,5.17,1.37,4.9A8,8,0,0,0,69.34,240.18Z"/><path class="cls-2" d="M75.74,251.94c1.06,1.18,2.24,2.27,3.38,3.38l-1-2.31-.27.38C76.25,251.21,76.23,252,75.74,251.94Z"/><path class="cls-2" d="M92.28,272.56l-1.07.27c1,.31,2,.53,3,.78Z"/><path class="cls-2" d="M97.33,276.39l-.66.49c.54.21,1.1.4,1.64.6Z"/><path class="cls-2" d="M278.63,110.9l-.86-1A8.89,8.89,0,0,0,278.63,110.9Z"/><path class="cls-2" d="M283.14,119.35l.46,0C283.2,119.09,283,119,283.14,119.35Z"/><path class="cls-2" d="M243.55,282.7c2.14-.5,4.76-.82,4-1.42l-1-.38A11.64,11.64,0,0,1,243.55,282.7Z"/><path class="cls-2" d="M297.53,196.72l-.36.52c.18.54.35,1,.51,1.49C297.63,198.12,297.62,197.44,297.53,196.72Z"/><path class="cls-2" d="M294.25,194.67l1-2.43A16.32,16.32,0,0,0,294.25,194.67Z"/><path class="cls-2" d="M242.62,73.75c-.58-.06-1.15-.11-1.75-.13C242.84,74.94,242.22,74,242.62,73.75Z"/><path class="cls-2" d="M156.69,300.59a28.8,28.8,0,0,0,4.39,1.08C159,300.9,157.36,299.94,156.69,300.59Z"/><path class="cls-2" d="M288.57,109.73c-.57-.69-.91-.92-1.07-.8C288.08,109.63,288.48,110,288.57,109.73Z"/><path class="cls-2" d="M166.26,302.1c-.31-.11-.62-.18-.93-.27a23.21,23.21,0,0,1-4.25-.16A8.87,8.87,0,0,0,166.26,302.1Z"/><path class="cls-2" d="M75.63,105c-.11.09-.22.22-.32.3C75.38,105.43,75.49,105.27,75.63,105Z"/><path class="cls-2" d="M47.53,155c0-.58.14-1.53.24-2.42A11.37,11.37,0,0,0,47.53,155Z"/><path class="cls-2" d="M118.93,289.9c-1.24-.54-.24,0,0,0Z"/><path class="cls-2" d="M114.73,283.91c.29,0,.54,0,.66-.13A.89.89,0,0,1,114.73,283.91Z"/><path class="cls-2" d="M179.46,296.93h.11C179.18,296.77,179.25,296.8,179.46,296.93Z"/><path class="cls-2" d="M117.29,288.64a15.58,15.58,0,0,0,1.42,1C118.49,289.47,118.06,289.15,117.29,288.64Z"/><path class="cls-2" d="M117.35,289.13l-1-.61C116.13,288.57,116.22,288.72,117.35,289.13Z"/><path class="cls-2" d="M120.66,290.63a20.83,20.83,0,0,1-2-1c.22.16.3.25.22.25Z"/><path class="cls-2" d="M159.09,50.88c-.08,0-.18,0-.28-.05C157.6,51.35,158.15,51.22,159.09,50.88Z"/><path class="cls-2" d="M263.82,254.43s0,.09-.07.13l.15-.11Z"/><path class="cls-2" d="M266.31,250.66a5.33,5.33,0,0,1-2.41,3.79c1,.21,1.92.42,2.87.6C266.63,253.57,266.48,252.1,266.31,250.66Z"/><path class="cls-2" d="M264.93,92.57l1.45,2.87c-3.42-2-4.84-4.28-3.77-1.39.58-.37,1.37,0,2.27.74a20.54,20.54,0,0,1,2.87,3,32.1,32.1,0,0,0,2.79,3.11c.82.82,1.58,1.27,2.19,1l.73,2c-.32-.49-.5-.48-.82-1,1.25,4,3.32,1.32,5.84,5.93.78,1.65,1,3,.15,2.05l2.59,3.16c.53,1,0,1-.55,0,1.06,1.74,2,3.56,3,5.34h-.09a25.45,25.45,0,0,1,2.85,2.92c.29,1.59-.59-.6-.73-.09.66,1,1.36,1.89,2,2.87-.06.79-.51.58-1-.1a11,11,0,0,1-1.67-2.86c-.59,2-.14,2.55.62,3.49a10.84,10.84,0,0,1,2.22,5.77c-.46-1-1-1.91-1.48-2.85a7.55,7.55,0,0,0,.13,3.65,30.79,30.79,0,0,1,.75,4.58c.22-.9,0-7.56,1.81-4.32a9.46,9.46,0,0,0,1.63,4.11c-.92.3-.17,2.09.55,4.41l-1.28.17a7,7,0,0,0,1.3,2.11,7.48,7.48,0,0,1,1.2,1.33c.54,2.88-.29,3.67-1,4.5.61,4.6,1-3.47,2.2,1.92a24.77,24.77,0,0,0,.29,2.74c.12.87.26,1.71.45,2.57.38,1.72,1,3.51,1.5,5.82-.23,2.77-.81-.41-1.11.6l1.21,2.34c0,.6-.31.42-.47.34.5,2,1.29.09,1.73,3.33.7.42.28,2.11-.23,4.17s-1,4.46-.37,6.5c-.44,1-.75-.52-1.27-.25.32,2.75.42,3.94.58,5s.27,2,.7,4.37c-.44,1.25-.87,2.48-1.4,3.7,1.45-2.64,1.94,1.09,2.28,4.48.64-.92,1.19-1.72,1.49-2.27-.08,1.75-.15,3.52-.35,5.27-.35.57-.66-.05-1-1,0,.37.05.72.08,1-.88,1.71-1.38.59-1.78-.84l1.19-1.65c-.54-1.41-1.18-2.73-2-2.6a6.3,6.3,0,0,1,.05,1.7c-.15-.37-.3-.61-.45-.48s.05.72.16,1.59l-1.65.82.49.39-1.17,3.11c-.38,1-.87,2-1.3,3,0,1.22.11,2.43.17,3.68s0,2.49,0,3.84c0,.68-.06,1.38-.11,2.1s-.2,1.46-.34,2.23a31.12,31.12,0,0,1-1.3,5.05c-.18-2.15-1.4-1-2.5-1.63,1-.67,1.41-2.11,1.78-3.77.18-.83.38-1.72.58-2.65a14.58,14.58,0,0,1,.8-2.75c-.78,1.88-1.19,1.26-1.22.7-.31,2.32-.86,4.58-1.32,6.89-.87-.53-1.23,1.08-2.38,2.54,1.2-.22,1,1.09.37,2.82l-.51,1.36c-.21.45-.42.92-.62,1.37a18.14,18.14,0,0,0-1,2.48c-.67-.15-1-1.07.74-4.05a4.62,4.62,0,0,0-1.58,4.06,4.66,4.66,0,0,1-1.55,4.07c.41-.74.72-1.09.59-1.54a12.27,12.27,0,0,1-1.81,3.57c-.76,1.07-1.51,1.68-1.45,1.06l.44-.71c-.8,1.14-1.77,2.6-2.77,4.18s-2.15,3.18-3.11,4.75-1.91,3-2.49,4.13-.88,2.07-.7,2.5a8,8,0,0,1-1.17-2.36,115.57,115.57,0,0,1-2.47,11.36c-.45-1.64-5.27-1.63-2.68-5.54a18.51,18.51,0,0,0-1.78,1.52,24.3,24.3,0,0,0-2.18,2.64c.79-.46,3.12-.08,2.31.89a17.63,17.63,0,0,0-3,1.2,27.5,27.5,0,0,1-3.32,1.66c1.24-.65,1.63,2-.08,3.42,0-.48-1.6-1.6-1.17-2.29l-1.29,2.6c-.44.88-.93,1.7-1.4,2.56.81-1.15-1-1.63-2.33-1.4.35,0-.56.7-1.67,1.53a36.8,36.8,0,0,0-3,2.19l2.14-.88a10.55,10.55,0,0,0-4.11,4.61,13.29,13.29,0,0,1-1.45,2.28,9.12,9.12,0,0,1-2.83,2.3c.41-.78.08-3.35-2.69-2.09a30.82,30.82,0,0,1-2.16,5,17.34,17.34,0,0,1-5.32,6.09l-1.24-.16c-1.19.81-2.37,1.65-3.62,2.37.93-1.24,2.68-3.56,4.52-5.82.94-1.1,1.83-2.34,2.7-3.41s1.68-2,2.36-2.81c-2.24.58-.93-.39-3.87,1.19-1.33,0,1.19-1.66,2-2.14-2.36,1.06-4.69,2.15-7.1,3,.43.55-.78,1.46-2,2.36s-2.57,1.65-2.22,2.12c2.5-1.41,4.85-3.09,7.23-4.65.44.54-.26,1.9-1.76,3.41a15.46,15.46,0,0,1-2.81,2.25,19.93,19.93,0,0,1-3.72,1.76c-1.52,0,.15-2.63-.13-3a12.37,12.37,0,0,1-5.25,2.47l2-1.43a9.29,9.29,0,0,0-3.75,1.84,7.1,7.1,0,0,1-4.44,1.24c-1.26.31-4.12-.72-4.14.09,2.36,1,4,5.52,2.85,7-.24,0-2.06.05-4,0a21.7,21.7,0,0,1-2.84-.14,12,12,0,0,1-2-.3c-2.33-.81,2.67-3.39.67-4.09,0,.38-1.08,1-1.54,1.26-1.39-.07.36-1.22-2.51-.54-.28,1.42-6,.65-1.21,1.32a9.81,9.81,0,0,1-3,.4c-.84,0-1.74,0-3.43.12.58.4-.11,1.2-1.34,2a12.4,12.4,0,0,1-4.46,1.78c.16-.35-.53-.78-.85-1-1.52,0-2.85,0-4.09-.07s-2.39-.22-3.52-.33l-3.42-.33c-1.18-.15-2.43-.29-3.82-.4-.5-.35-3.13-1-1.94-1.46a8.57,8.57,0,0,1-3.3.32c-3.14-1.58,3.81.3,1.47-1.42-.3.73-4.52.6-7,.58.27.65,1.65,1,3.3,1.07s3.52-.09,4.76-.18c-.08.84-1.23,1.56-3.15,2.08a19.27,19.27,0,0,1-3.38.57,39.24,39.24,0,0,1-4.22,0c-2.4-.2-2.83-.66-2.8-.93s.56-.5.13-.48a22.8,22.8,0,0,0-5-.83,20,20,0,0,0-3.15,0,12,12,0,0,1-2.85-.06,13.71,13.71,0,0,1-4-1.54c-2.46-2,.58-2.06.21-3a17.52,17.52,0,0,1,4.41,1.66,20.7,20.7,0,0,0,3.52,1.48l-2.95-1.37a13.5,13.5,0,0,1,5.06,1.11,13.41,13.41,0,0,0-3.2-1.38l-2.55-.81-2.89-1c-1-.35-2-.69-3.07-1.09l-3-1.26a36.48,36.48,0,0,1-5.25-2.69c-1.24-.17-3.3-.69-2.59.11l2,.75c1.46,1.61-4.22-.6-1.89.9a39.29,39.29,0,0,1-4.66-1.25,22.31,22.31,0,0,1-2.51-1,20,20,0,0,1-2.51-1.58l-.06-1.45c-.11.35,2,2,3.16,2.22-.88-.18-2-1.34-3.29-2.37a11.54,11.54,0,0,0-1.9-1.36,2.89,2.89,0,0,0-1.85-.48c.66.75,1.31,1.54,2,2.25-1.45-.46-3.07-1-4.75-1.64a16.91,16.91,0,0,1-2.49-1.14,15.32,15.32,0,0,1-2.26-1.62c.7,2,.77.39,2.15,3.08-1-2.7,8,5.22,5.89,1.66a8.2,8.2,0,0,0,2.73,2.89,21.2,21.2,0,0,1,3.46,3c.09-.41-.77-1.27,1.94.35a3.35,3.35,0,0,1,.78,0l.17.13-.13-.13c.15,0,.16,0,0,0a4,4,0,0,1-1.14-1.28,13.18,13.18,0,0,1,4,1.05,32.39,32.39,0,0,0,4,1.22c1.6.94-.88.11-.14.92.85.13,1.71.24,2.58.31-.13.92,4,3.2-.25,2.08l3.67,1.49a20.09,20.09,0,0,0,7,2.72c1.75.71,4.81.34,3.06.57,1,.19,2,.4,3.06.57l3.08.42v.24c3,.8,6.14.91,9.35,1.31a45.8,45.8,0,0,1,10,1.74c1,0,2.08-.08,3.3-.07a34.28,34.28,0,0,1,4.32.17l.66.79c1.33-.06,3.32,0,5.13.14s3.43.11,4-.36a7,7,0,0,0,3.36.7c.71,0,1.49,0,2.31-.05s1.65-.2,2.51-.33c1.72-.29,3.49-.56,5.11-.92a39,39,0,0,1,4.27-.77l0-1a34.33,34.33,0,0,0,4.7-1.17l2.47-.79c.84-.3,1.72-.66,2.64-1l-.47-.8a28.74,28.74,0,0,1,6.05-1.8c1.18-.27,2.44-.55,3.72-.87a36.08,36.08,0,0,0,3.78-1.32c-.21.45-1.52.87-2.49,1a15.65,15.65,0,0,0,4.84-1.21,38.09,38.09,0,0,0,4.41-2.46c1.44-.85,2.77-1.86,4.15-2.65a19.53,19.53,0,0,1,4.21-1.86,7.47,7.47,0,0,1,3.06-1.75,1.05,1.05,0,0,0-.28.22l.52-.29a19.82,19.82,0,0,0,2-.65,15.51,15.51,0,0,0-1.7.48,31,31,0,0,0,3.6-2.7l1.13.42.31-.23c1.59-.6.86-1.09-.28-1.22a9.54,9.54,0,0,0,1.48-1.72c1,.25,1.8-.49,2.67-1.25a8,8,0,0,1,1.37-1,2.67,2.67,0,0,1,1.62-.43c.2-.67,1.75-2.08,3.2-3.55s2.66-3.16,2.43-4.08c.19.13.63-.11,0,.48a11.77,11.77,0,0,0,3.85-3.66l1.41.35.88-2,.8-2c2.2-1.23,3.24-1.69,2.24.73.75-1.32,1.31-2.21,1.75-2.89s.74-1.18,1-1.63a21.82,21.82,0,0,0,2.19-4.07l.47.7c1.08-1.43,2-4.3,3.16-4.74a17.63,17.63,0,0,0,3.42-3.59,33.09,33.09,0,0,0,2.1-2.94l2.25-3.44c3-4.9,6-10.62,8.65-15.09-1.48.44-.73-.53.15-1.77s1.88-2.8,1.11-3.31c.73-.36,1.55-1.59,1.39.14.36-1.28.76-2.36,1.11-3.35s.74-1.84,1.08-2.67a9.56,9.56,0,0,0,.84-5.15c.7-.43.47,1.31.93.88,0-.44,0-1.74.46-2.19s.24.87.24,1.75a14.84,14.84,0,0,0,.55-3.2,5.17,5.17,0,0,0-.35-2,3.48,3.48,0,0,0-1.91-1.77,9.6,9.6,0,0,0,1.2-3.08,6.55,6.55,0,0,0-.38-2.83c.68-.82,1.49-2.28,1.09,1l.58-2.51c.13-.57.27-1.19.41-1.83s.19-1.31.29-2c.36-2.62.53-5.05-.14-5.21a6.75,6.75,0,0,0,.18-3.08c.1-1,.18-1.84.25-2.52s.08-1.25.11-1.81c.05-1.12.08-2.23.07-4.28l-.24,1.13c-1.46-1.62-.34-3.38-.6-6.67l.16.09a20.35,20.35,0,0,0,.21-3.82,8.09,8.09,0,0,0-.22-1.57,6.91,6.91,0,0,1-.19-1.55c0-.38,0-.86,0-1.47s0-1.37.06-2.32l-.9.52c-1.07-.23-1-1.87-.78-4s.27-4.77-.5-6.82l-.26,1.64c-.52-1.09-.22-2.82.21-4.62s1-3.68.76-4.87c0-.55.52.73.81,1.41-.52-6.43-1.43-.47-3-4.9.39-1,2,.58,1.17-2.5,0-.84-1.25-2.87-2.55-5.21a34.92,34.92,0,0,1-2-3.61,15.68,15.68,0,0,1-.69-1.82,9.07,9.07,0,0,1-.44-1.72c-.08,1.08-.18,2.13-1.43.31-.79-1.45-1.18-3.74-2-5.83s-1.58-4.14-3.08-5c-.09-.44-.05-.64.05-.72-.84-1-1.95-2.73-3.21-4.23a14.92,14.92,0,0,0-3.24-3.25c.4-1-.12-2.16-1-3.5a25.59,25.59,0,0,0-3.45-4c-1.3-1.28-2.52-2.54-3.34-3.51s-1.16-1.78-.58-2.27c-.88-1-1.73-1.95-2.64-2.88l-2.75-2.78.36-.07a18.68,18.68,0,0,0-4.1-3.64,12.34,12.34,0,0,0-2.87-1.36c-.73-.91.09-.57.27-.63a34.52,34.52,0,0,0-5.55-5.06,28.7,28.7,0,0,0-6-2.93l.06-1.17a7.46,7.46,0,0,1-2-1.41c-.9-.77-2.08-1.68-3.39-2.72-.66-.52-1.35-1.06-2.09-1.59s-1.53-1-2.34-1.48a22.47,22.47,0,0,0-5-2.37,1.1,1.1,0,0,1,.91,0c-3.84-1.37-7.89-4-11.67-6s-7.19-3.13-9.13-1.89c-1.76-.32-3.56-.44-5.32-.66,6.46,2.13-1.4,1.23,1.11,2.57a11.78,11.78,0,0,1-3.71-1.56c-.87-.54-1-1,.6-.65l.44.31c1.68-1.6-8-2.63-7.61-3.77a189.37,189.37,0,0,0-19.79-2.77l-4.91-.32c-1.63,0-3.26,0-4.88-.07-.81,0-1.62,0-2.43,0l-2.41.12c-1.6.1-3.21.13-4.79.34.54.43,1.07.84,1.6,1.29-1.46.11-2.91.3-4.37.45-1.19-.19-1.7-.94,1.45-1.28a5.16,5.16,0,0,0-3.25.49,4.73,4.73,0,0,0-1.93,1.26c-6.18.5,2.09-2.11.23-1.81l-2.53.56.6.07c-1,.47-1.48.88-2.21,1.23a7.52,7.52,0,0,1-1.34.52A20.22,20.22,0,0,1,147,47c-2.4.26-1.4-.6-2.34-.44,0-.1-.34-.08-1.43.29-1.81.43-3.61.93-5.43,1.39l2.47.5c-2.21,1.2-5,1.39-2.19,1.92-2.07-.42-7.08,1-11.7,2.91-2.32.92-4.51,2-6.31,2.84a26.28,26.28,0,0,1-3.7,1.64,24.59,24.59,0,0,1-2.08,1.61c-.7.53-1.42,1-2.18,1.52-1.52,1-3.19,1.86-5,3,1-.36,2.21.42-.88,2.21-.17-1.46-1.76-.87-3.66.24s-4.22,2.56-5.94,2.75c1.43-.3-.57,1.36-2.36,3s-3.27,3.27-1.15,2.6c-2.42,1.81-.78-.65-2.94.39-1.22,1.35-2.53,2.73-4,4.09-.72.68-1.48,1.34-2.23,2L81.79,83.6c-.77.73-1.58,1.43-2.34,2.2l-2.27,2.35a45.23,45.23,0,0,0-4.26,5.14c.2.33,1.54-.52.78,1.31-1.46.85-2.8,1.82-4.21,2.76a4.16,4.16,0,0,0-.34,2.07c-.07.67-.37,1.38-1.74,2.42.49-.23,1.23-.55.69.5-5.5,6.85-9.36,15.07-12.44,23.46s-5.46,17-8.48,25.62c1.1-2.28.88-.67.59,1.15.37-1.16.85.16,1.36,0-.74,2.38-1.54,4.78-2.22,7.21.61.74.48,2.73.35,4.64s-.1,3.77.49,4.17l-.16-2.35c.71,1.59,1.54.52,2.49-.82s2.05-3,3-2.68a5.08,5.08,0,0,1-.14-2.91,28.54,28.54,0,0,1,1.1-3.37,27.56,27.56,0,0,0,1.06-3.75,9.39,9.39,0,0,0,0-4.15c.59-1.11.42,1.14,1,.58-.6-1.52-.34-3.19.7-6.14l.12.39a51.26,51.26,0,0,1,1.51-5.56,42.42,42.42,0,0,1,1.76-4.61c.63-1.5,1.28-3,2.13-4.67s1.67-3.54,2.83-5.67l-1.16.27a12.63,12.63,0,0,1,2-2.92c-.31-2.81-2.5,5.32-3,2.68a8,8,0,0,0,2.23-2.87c.76-1.35,1.64-2.94,2.46-4.54a33,33,0,0,1,2.61-4.25c.85-1.16,1.64-2,2.38-2.06,1.74-2.69-1.44.21.3-2.49l1-.4-.2-1.1c1.24-1.72,2.53-2.12,3-1.91a12.62,12.62,0,0,0-1,1.73,17.14,17.14,0,0,0,3-3.94,18.92,18.92,0,0,1,2.07-3c-.73.73-1.47,1.45-2.18,2.2,1.23-1.8,2.58-3.68,4.08-5.5s3.07-3.67,4.77-5.38l2.45-2.64q1.28-1.26,2.49-2.52c1.58-1.72,3.21-3.28,4.61-4.91l-.78.08c.55-.61,1-1.12,1.46-1.54s.84-.74,1.2-1a15.25,15.25,0,0,1,1.89-1.27c.61-.35,1.21-.74,2-1.26A37.22,37.22,0,0,0,106,72l-.15.24a14.26,14.26,0,0,1,4.08-3.45c-1.23,1.42,3.39-1,1.71.8,2.75-2.21,3.46-2.74,3.81-3.28a12.39,12.39,0,0,1,2.09-2.83l1.31.16a16.19,16.19,0,0,1,1.34-1.57,12.08,12.08,0,0,1,2.91-1.88c-2.42,1.79,2.56.08-.08,2.2a20.08,20.08,0,0,0,4.68-1.61c1.31-.6,2.42-1.2,3.42-1.77,2-1.16,3.61-1.92,5.6-1.34,1.3-1.52-.32-1.28-2.07-.77s-3.56,1.38-2.75.8c-.87,0-.34-.64.7-1.34a14.24,14.24,0,0,1,3.81-1.65c1.15-.38,2.33-.09,3.94.15a15.78,15.78,0,0,0,2.77.13,14.46,14.46,0,0,0,1.72-.2,17.87,17.87,0,0,0,2-.37c-.58.13-.58.29-1.16.41A9.3,9.3,0,0,0,149,54a14.56,14.56,0,0,1,1.73-.51,7.26,7.26,0,0,1,2,0c1.29-1.49,3.51-.55,3.71-2.19L151,52.59c1.5-.48,2.9-1.3,4.6-2a14.73,14.73,0,0,1,6.36-1,12,12,0,0,1-2.88,1.35c1.56.29,2.86-.72,4.48-.35-.16.78-1.8,1-3.82,1.36-1,.15-2.1.29-3.14.51a11.1,11.1,0,0,0-2.77,1c.85.21,2.34-.39,3.47-.7s1.87-.42,1.16.54c1-1.23,2.53-1.35,4.2-1.43a11.57,11.57,0,0,0,5.54-.93l-.21,1a10.33,10.33,0,0,1,3.12-.7L169,52.46c3.23-1.12,6.28.69,9.38.27-3.26-.08-3.62-.35-3.52-.72s.69-.86-.71-1.17c8.19-1.12,4.63,2.41,13.57,2.67-1.21,0-4.5-.93-2.56-1.23a22.27,22.27,0,0,1,2.72.65,10.5,10.5,0,0,1,2.17.92c5.93.55-.78-1.08,1.82-1.34,1.87,1.37,3,0,5.67.07l-.16,1a19.63,19.63,0,0,0,2,.45,6.56,6.56,0,0,0,1.21.14,1.52,1.52,0,0,0,1.09-.41c.46-.39.85-.78,3.8.28l-2.87.71c1.07.14,2.15.24,3.22.42L205,56a16.53,16.53,0,0,1,4,.54,22.4,22.4,0,0,1,3.7,1.43c-.54-.9,1-1.52,3.89-.57,1.76,1.26-1.39.42,2.68,1.87a3.67,3.67,0,0,1-3.83-.93c-.29.23-1.1.26-1.39.49,1.9,1.27,5.14,2.08,6.59,2.63a7.18,7.18,0,0,1-1.47-.83c1,.18,2.1.34,3.14.53l3.11.68c.75.73-.09.68-.9.62,1.18.44,2.19.34,3.88,1.11-.77.49-1,1.23-3.53.51,1.92.5,3.77,1.17,5.65,1.81.21.47,2.24,2.21,1.42,2.11a21,21,0,0,0,5.22,2.43,19.08,19.08,0,0,1,5.7,3.24,3.73,3.73,0,0,1,1.54.59c.8.62,1.55,1.27,2.3,1.92s1.42,1.38,2.17,2a30.33,30.33,0,0,0,2.42,2,20.91,20.91,0,0,0,2.89,1.88c.37,1,.77,1.87,1.1,2.85,2.94,2.37-1.5-3.87,3.44.1,3.56,2.79.38,2,1.2,3.39a31.08,31.08,0,0,1,3.89,2.34,12.49,12.49,0,0,1,3.68,4.5A30.14,30.14,0,0,1,264.93,92.57ZM289,132.36c-.24-.39-.65-1-1-1.54a2.06,2.06,0,0,1-.43-1.55C289.05,129.84,288.85,130.79,289,132.36Zm5.11,70.86a4.81,4.81,0,0,1,.88-2.83A8.8,8.8,0,0,1,294.14,203.22ZM132.85,294.73H133C134.91,295.78,134.22,295.39,132.85,294.73Zm-4.11-1.94c-.47,0-.49.09-.36.29a5.39,5.39,0,0,1,2.39.73C130.55,293.46,130.08,293.08,128.74,292.79ZM144.29,47.05l.91.05C143.34,47.81,143.82,47.44,144.29,47.05Z"/><path class="cls-2" d="M294.63,194.93a.79.79,0,0,1,.58-.29C295.11,194.25,294.93,194.21,294.63,194.93Z"/><path class="cls-2" d="M243,73.78l-.11-.09a.36.36,0,0,0-.22.06Z"/><path class="cls-2" d="M196.09,291.39a5,5,0,0,1,1.74.19C197.83,291.34,197.41,291.22,196.09,291.39Z"/><path class="cls-2" d="M106.48,283.58c.85.47,1.75.86,2.64,1.28a6.55,6.55,0,0,1-2.1-1.61C107,283.48,107.26,284.06,106.48,283.58Z"/><path class="cls-2" d="M90.34,263.84c-.38-.2-.64-.59-1-.78l-.23.4C90.39,264.65,91.51,265.22,90.34,263.84Z"/><path class="cls-2" d="M105.93,279.42c.13-.4-.22-.78-.82-1.18-.3-.2-.67-.41-1.06-.62l-1.24-.74a3.06,3.06,0,0,1,.29.21c-.57.29-.36.67.23,1.09A16.37,16.37,0,0,0,105.93,279.42Z"/><path class="cls-2" d="M102.42,276.64a15.21,15.21,0,0,1-1.52-1.06C100.44,275.82,101.46,276.09,102.42,276.64Z"/><path class="cls-2" d="M123.23,291.11c-.79-.59-1,.7-1.34.17-.7.25.9.63,2,.74.57.06,1,0,1-.12S124.48,291.54,123.23,291.11Z"/><polygon class="cls-2" points="106.05 276.32 106.09 277.54 107.46 277.46 106.05 276.32"/><path class="cls-2" d="M119.11,284.72,116.43,283c0,.17-.44.07-.91-.09C117.23,283.87,119,285,119.11,284.72Z"/><path class="cls-2" d="M115.52,283a10.92,10.92,0,0,0-2.29-1.1A17.06,17.06,0,0,0,115.52,283Z"/><path class="cls-2" d="M109.81,278.38l.67.67,1.88,1.16C111.51,279.6,110.63,279,109.81,278.38Z"/><path class="cls-2" d="M151,295.76l3.43.32c.4-.27-.48-.65-1.76-.73C151.84,295.44,150.56,295.34,151,295.76Z"/><path class="cls-2" d="M141.64,290.7a3.28,3.28,0,0,1,1.23,1.14l.43-1.17Z"/><path class="cls-2" d="M151.24,292.72c.4-.28,4.95-.12.78-.79C151.62,292.23,148.27,291.85,151.24,292.72Z"/><polygon class="cls-2" points="201.83 293.74 200.99 293.95 201.54 295.92 201.83 293.74"/><path class="cls-2" d="M240.58,272.27c-3.53,1.67-.09,1.57-3.4,2.92-.52.91,2.71-1.11,2.13-.26C241,273.23,242.22,272.8,240.58,272.27Z"/><path class="cls-2" d="M239.31,274.93c-.28.28-.57.58-.86.92A6.69,6.69,0,0,0,239.31,274.93Z"/><path class="cls-2" d="M45.49,164.72c-.23.89-.36,1.79-.54,2.68l.73-1.71C45.6,165.36,45.55,165,45.49,164.72Z"/><path class="cls-2" d="M46.83,169.93l-1.32.61,1.14,1.63A4.72,4.72,0,0,1,46.83,169.93Z"/><path class="cls-2" d="M288.62,139.73l.35.1c.22-.46.08-1-.18-2.16Z"/><polygon class="cls-2" points="275.9 108.89 276.19 109.39 276.6 107.86 275.9 108.89"/><path class="cls-2" d="M257.17,88.08c.8.8,1.91,1.59,2.66,2.45C258,88.87,258,86.83,257.17,88.08Z"/></g><text class="cls-4" transform="translate(98.05 133.85)">RIVER SHELL</text><g id="shell"><path class="cls-5" d="M175.14,144.39a3.06,3.06,0,0,0-2.55.86s-10.87-.45-12.44,2.32c0,0,.36,1.33-2.16,7.3l12.86-6.64-22.73,15.1s-10.23,8.07-1.16,13.35c0,0,6.53-2.11,13.35-11s12.11-17,12.11-17-5.1,12.09-11.2,17.33c0,0-11.06,11.51-13.27,11.86,0,0-2.65,6.67,4.31,8.88a43.12,43.12,0,0,0,10.87-14.43c4.48-9.44,9.29-21.65,9.29-21.65s-5.36,16.56-7.8,21.15c0,0-4.61,10.06-10.36,15.43,0,0-.34,7.85,7.79,7.88,0,0,6.78-8.76,9-23.77s2.66-19.7,2.66-19.7-1,24.55-4.48,32.85c0,0-3.82,9.93-5.4,11,0,0,2.85,5.78,10.37,3.23l1-50.76Z"/><path class="cls-6" d="M175.17,144.39a3.08,3.08,0,0,1,2.56.86s10.87-.45,12.44,2.32c0,0-.36,1.33,2.16,7.3l-12.86-6.64,22.73,15.1s10.23,8.07,1.16,13.35c0,0-6.53-2.11-13.35-11s-12.11-17-12.11-17S183,160.74,189.09,166c0,0,11.06,11.51,13.28,11.86,0,0,2.65,6.67-4.32,8.88a43.18,43.18,0,0,1-10.86-14.43c-4.48-9.44-9.29-21.65-9.29-21.65s5.36,16.56,7.79,21.15c0,0,4.62,10.06,10.37,15.43,0,0,.33,7.85-7.8,7.88,0,0-6.77-8.75-8.95-23.77s-2.66-19.7-2.66-19.7,1,24.55,4.48,32.85c0,0,3.82,9.93,5.39,11,0,0-2.85,5.78-10.37,3.23l-1-50.76Z"/></g><g id="text-_bottom" data-name="text- bottom"><text class="cls-7" transform="translate(132.33 228.75)">BEST OF I<tspan class="cls-8" x="46.36" y="0">T</tspan><tspan x="51.42" y="0">A</tspan><tspan class="cls-9" x="58.76" y="0">L</tspan><tspan class="cls-10" x="63.42" y="0">Y</tspan></text><text class="cls-11" transform="translate(105.46 248.66)"><tspan class="cls-12">C</tspan><tspan x="4.55" y="0">o</tspan><tspan class="cls-13" x="8.94" y="0">n</tspan><tspan x="13.35" y="0">taines Sulfi</tspan><tspan class="cls-14" x="49.46" y="0">t</tspan><tspan x="52.06" y="0">e</tspan><tspan class="cls-12" x="56.07" y="0">s</tspan><tspan x="59.15" y="0">, 13.8% </tspan><tspan class="cls-15" x="84.5" y="0">A</tspan><tspan class="cls-16" x="89.37" y="0">l</tspan><tspan class="cls-17" x="91.26" y="0">c</tspan><tspan x="94.77" y="0">. </tspan><tspan class="cls-18" x="98.12" y="0">b</tspan><tspan class="cls-19" x="102.61" y="0">y</tspan><tspan class="cls-20" x="106.38" y="0"> </tspan><tspan class="cls-21" x="107.79" y="0">V</tspan><tspan class="cls-19" x="111.99" y="0">o</tspan><tspan class="cls-17" x="116.38" y="0">l</tspan><tspan class="cls-22" x="118.19" y="0">.</tspan><tspan class="cls-23" x="119.85" y="0"> </tspan></text><text class="cls-7" transform="translate(155.53 267.9)">750 ml </text></g></g></g></g></svg>