<svg xmlns="http://www.w3.org/2000/svg" viewBox="0 0 300 300"><defs><style>.cls-1{fill:#fdf286;}.cls-2,.cls-3{fill:none;stroke:#231f20;}.cls-2,.cls-3,.cls-4{stroke-miterlimit:10;}.cls-3{stroke-width:2px;}.cls-4{fill:#a83f3a;stroke:#a83f3a;stroke-width:0.75px;}.cls-5{font-size:27.1px;fill:#fff7a6;font-family:Arial-Black, Arial Black;font-weight:800;}.cls-6{font-size:15.14px;fill:#abd1a0;font-family:Avenir-Book, Avenir;}</style></defs><title>organ_project</title><g id="Layer_2" data-name="Layer 2"><g id="Layer_1-2" data-name="Layer 1"><rect class="cls-1" width="300" height="300"/><path class="cls-2" d="M154.61,105.6s4.22,5.54,4.46,11.53v11.75s-.24,5.43-4.46,5.65"/><path class="cls-2" d="M152.27,134.53a2.59,2.59,0,0,1-2-.45"/><path class="cls-2" d="M146.76,111s3.28-.17,5,1.75"/><path class="cls-2" d="M143.71,116.79s1.12-.27,1.44,6.36"/><path class="cls-3" d="M135.44,109.27s-4.66-6.46-1.14-12.41c0,0-2.58-3.17-2.89-4.67l2-1.21s2.07,3.24,2,3.39l.05-.15,1.07-.75-.62-4.3,2.42-.3s.39,3.39,1,3.65h.94l.54-4,2.5.53L143,92.52s2.42.5,2.62,1.78"/><path class="cls-3" d="M129.65,106.23s-4.57-5.38-5.35-8.77l4.92-3.09s3.51,4.73,4.17,4.55a14.8,14.8,0,0,0-.36,3.74l-.68.34s-5.86,4.24-4.93,14.66c0,0,2.23,11.9,19,17.78,0,0,13.59,5.65,14.53-6,0,0,2.46-16.5-3.51-23.85,0,0-3.05-4.63-6.1-6.1l1.76-1.7A3.42,3.42,0,0,0,152,93.17s-3.75-2-6.44,1.13c0,0-2.23.79-5.86,7.68,0,0-1.64,5.77-5.27,8"/><path class="cls-2" d="M126.4,98.22s3,4.59,3.6,4.89"/><path class="cls-2" d="M135.47,97.69a40,40,0,0,0-.39,5.42"/><line class="cls-2" x1="135.26" y1="104.32" x2="135.78" y2="105.6"/><path class="cls-3" d="M147,122.44s.35-5.72-2.11-7.77c0,0-2.93-6.92,6.44-15.17"/><path class="cls-2" d="M153.56,111.48s-.72-2.4-8.41-3.5"/><path class="cls-4" d="M148.44,34.35v23c17-21.1,43.22-26.11,66.49-10.47A43.78,43.78,0,0,1,234.27,88c-2.19,22.07-17.2,35.48-31.74,50.56l-35.89,37.22c0-6.82-1.71-16.29,1.94-21.23,3.38-4.56,11.89-8.16,16.28-12.36,4.78-4.57,9-9.66,13.38-14.6,2.79-3.17,10.06-9.42,5.16-13.79-5.29-4.72-9.53,2.4-12.36,6-6.35,8.13-12.11,21.6-22.63,25.1,1.58-3.83,6.41-5.79,7.94-9.68,5-12.85-5-3.31-9-.27-8.08,6.12-15.16,8.36-15.79,19.24-1.2,21.13,0,42.62,0,63.78l42.21-43.76c14-14.56,31.35-28.72,43-45.21,19-26.82,18.32-61.55-2.86-86.61C213.14,17.83,173.72,12.78,148.44,34.35Z"/><path class="cls-4" d="M148.44,34.35v23c-17-21.1-43.22-26.11-66.5-10.47A43.77,43.77,0,0,0,62.61,88C64.8,110,79.8,123.45,94.35,138.52l35.89,37.22c0-6.82,1.71-16.29-2-21.23-3.37-4.56-11.89-8.16-16.28-12.36-4.78-4.57-9-9.66-13.37-14.6-2.8-3.17-10.06-9.42-5.17-13.79,5.3-4.72,9.53,2.4,12.37,6,6.35,8.13,12.11,21.6,22.62,25.1-1.58-3.83-6.41-5.79-7.93-9.68-5-12.85,5-3.31,9-.27,8.09,6.12,15.17,8.37,15.79,19.26,1.21,21.12,0,42.6,0,63.76l-42.21-43.76c-14-14.56-31.34-28.72-43-45.21-19-26.82-18.32-61.55,2.86-86.61C83.73,17.83,123.16,12.78,148.44,34.35Z"/><rect class="cls-4" x="19.73" y="227.4" width="257.41" height="24.97"/><text class="cls-5" transform="translate(24.32 249.92) scale(1.04 1)"><tspan xml:space="preserve">DON  DE COEUR</tspan></text><text class="cls-6" transform="translate(36.09 272.58) scale(1.04 1)">Everyone has right to live long!</text></g></g></svg>